<?xml version='1.0' encoding='UTF-8'?>
<svg viewBox="-20.375 -53.9938 326 326" xmlns="http://www.w3.org/2000/svg" xmlns:xlink="http://www.w3.org/1999/xlink">
  <g transform="matrix(10.1875, 0, 0, 10.1875, 0, 0)">
    <defs tag="staticElement_id3571397" />
    <g transform="translate(-0.0017, -0.0334)">
      <g transform="matrix(0.0861, 0, 0, 0.0861, 0, 0)">
        <g fill="none" id="Page-1" stroke="none" stroke-width="1px" fill-rule="evenodd">
          <g id="Logo_TRK" transform="translate(-41, -50)">
            <path d="M203.6746, 357.6709C254.372, 357.6709 295.4703, 275.7533 295.4703, 174.7028C295.4703, 73.6523 254.372, -8.2653 203.6746, -8.2653C152.9773, -8.2653 111.8789, 73.6523 111.8789, 174.7028C111.8789, 275.7533 152.9773, 357.6709 203.6746, 357.6709z" fill="#294E92" id="Oval-1" transform="translate(203.6746, 174.7028) rotate(-302, 0, 0) translate(-203.6746, -174.7028)" stroke="none" stroke-width="1px" fill-rule="evenodd" />
          </g>
        </g>
      </g>
    </g>
    <g transform="translate(-0.0017, -0.0334)">
      <g transform="matrix(0.0861, 0, 0, 0.0861, 0, 0)">
        <g fill="none" id="Page-1" stroke="none" stroke-width="1px" fill-rule="evenodd">
          <g id="Logo_TRK" transform="translate(-41, -50)">
            <path d="M78.938, 210.299L78.938, 143.045L43.035, 143.045L43.035, 128.749L139.824, 128.749L139.824, 143.045L103.789, 143.045L103.855, 210.299" fill="#FFFFFF" id="Fill-4" stroke="none" stroke-width="1px" fill-rule="evenodd" />
          </g>
        </g>
      </g>
    </g>
    <g transform="translate(-0.0017, -0.0334)">
      <g transform="matrix(0.0861, 0, 0, 0.0861, 0, 0)">
        <g fill="none" id="Page-1" stroke="none" stroke-width="1px" fill-rule="evenodd">
          <g id="Logo_TRK" transform="translate(-41, -50)">
            <path d="M206.977, 169.526C211.105, 169.526 215.832, 169.53 219.109, 166.499C222.098, 163.71 222.387, 158.463 222.387, 155.319C222.387, 151.706 222.379, 148.276 219.246, 145.592C215.965, 142.913 210.488, 142.686 207.355, 142.686L180.715, 142.686C179.43, 142.686 177.816, 142.569 177.52, 143.51C177.242, 144.374 177, 144.682 177, 146.081L177, 169.397L177, 169.397L206.977, 169.526L206.977, 169.526zM152.25, 210.663L152.25, 128.393L214.402, 129.1C219.672, 129.1 228.09, 129.1 234.211, 133.995C241.055, 139.354 241.77, 148.561 241.77, 155.436C241.77, 162.081 242.77, 173.17 234.934, 178.409C231.227, 180.862 223.57, 184.292 217.727, 184.292L177.047, 184.292L177.07, 210.663L152.25, 210.663z" fill="#FFFFFF" id="Fill-5" stroke="none" stroke-width="1px" fill-rule="evenodd" />
          </g>
        </g>
      </g>
    </g>
    <g transform="translate(-0.0017, -0.0334)">
      <g transform="matrix(0.0861, 0, 0, 0.0861, 0, 0)">
        <g fill="none" id="Page-1" stroke="none" stroke-width="1px" fill-rule="evenodd">
          <g id="Logo_TRK" transform="translate(-41, -50)">
            <path d="M251.422, 128.749L276.238, 128.749L276.238, 210.3L251.422, 210.3L251.422, 210.3L251.422, 128.749L251.422, 128.749z" fill="#FFFFFF" id="Fill-6" stroke="none" stroke-width="1px" fill-rule="evenodd" />
          </g>
        </g>
      </g>
    </g>
    <g transform="translate(-0.0017, -0.0334)">
      <g transform="matrix(0.0861, 0, 0, 0.0861, 0, 0)">
        <g fill="none" id="Page-1" stroke="none" stroke-width="1px" fill-rule="evenodd">
          <g id="Logo_TRK" transform="translate(-41, -50)">
            <path d="M326.668, 209.592L285.609, 178.241C279.773, 173.819 278.777, 169.858 278.777, 167.76C278.777, 166.131 279.34, 162.518 284.188, 158.553L321.965, 128.03L347.707, 128.065L304.582, 161.924C301.309, 164.491 299.352, 166.147 299.352, 167.893C299.352, 170.456 302.914, 172.557 305.766, 174.651L352.98, 209.592" fill="#FFFFFF" id="Fill-7" stroke="none" stroke-width="1px" fill-rule="evenodd" />
          </g>
        </g>
      </g>
    </g>
    <g transform="translate(-0.0017, -0.0334)">
      <g transform="matrix(0.0861, 0, 0, 0.0861, 0, 0)">
        <g fill="none" id="Page-1" stroke="none" stroke-width="1px" fill-rule="evenodd">
          <g id="Logo_TRK" transform="translate(-41, -50)">
            <path d="M326.668, 209.592L316.727, 202.002L327.18, 190.499L352.98, 209.592" fill="#FFFFFF" id="Fill-8" class="White" stroke="none" stroke-width="1px" fill-rule="evenodd" />
          </g>
        </g>
      </g>
    </g>
    <g transform="translate(-0.0017, -0.0334)">
      <g transform="matrix(0.0861, 0, 0, 0.0861, 0, 0)">
        <g fill="none" id="Page-1" stroke="none" stroke-width="1px" fill-rule="evenodd">
          <g id="Logo_TRK" transform="translate(-41, -50)">
            <path d="M78.938, 161.499L78.938, 143.049L43.035, 143.049L43.035, 128.741L110.07, 128.741C110.07, 128.741 96.645, 141.338 95.18, 142.686C92.504, 145.131 88.199, 150.518 86.352, 152.897C83.836, 156.116 78.938, 161.499 78.938, 161.499" fill="#FFFFFF" id="Fill-9" class="White" stroke="none" stroke-width="1px" fill-rule="evenodd" />
          </g>
        </g>
      </g>
    </g>
  </g>
</svg>