<?xml version='1.0' encoding='UTF-8'?>
<svg viewBox="1.0004 -9.4427 32 32" xmlns="http://www.w3.org/2000/svg" xmlns:xlink="http://www.w3.org/1999/xlink">
  <g transform="translate(0, 0.0002)">
    <g transform="matrix(1.1429, 0, 0, 1.1429, 0, 0)">
      <g transform="translate(0, -0.0005)">
        <g transform="matrix(0.875, 0, 0, 0.875, 0, 0)">
          <g transform="translate(0, -0.0001)">
            <g transform="translate(0, 0.0011)">
              <g transform="translate(0, 0.0013)">
                <g transform="matrix(1.1438, 0, 0, 1.1438, 0, 0)">
                  <g transform="translate(0, -0.0023)">
                    <g transform="matrix(0.0275, 0, 0, 0.0275, 0, 0)">
                      <g transform="matrix(1.3333, 0, 0, 1.3333, 0, 0)">
                        <g fill="#000000" transform="translate(0, 265) scale(0.1, -0.1)" stroke="none">
                          <path d="M3425, 2625C3398, 2599 3394, 2579 3410, 2551C3417, 2536 3407, 2522 3350, 2472L3281, 2410L2763, 2409C2478, 2408 2197, 2405 2138, 2401L2030, 2395L1846, 2218L1662, 2040L1521, 2040C1385, 2040 1380, 2041 1356, 2065C1324, 2097 1296, 2097 1265, 2065C1233, 2034 1233, 2006 1265, 1975C1296, 1943 1324, 1943 1356, 1975C1380, 1999 1385, 2000 1528, 2000L1675, 2001L1864, 2184L2053, 2367L2677, 2373L3301, 2379L3374, 2444C3417, 2483 3456, 2510 3469, 2510C3497, 2510 3540, 2553 3540, 2580C3540, 2607 3497, 2650 3470, 2650C3459, 2650 3438, 2639 3425, 2625zM3495, 2580C3495, 2562 3489, 2554 3472, 2552C3448, 2548 3434, 2570 3444, 2596C3447, 2605 3459, 2610 3472, 2608C3489, 2606 3495, 2598 3495, 2580zM1335, 2020C1335, 2002 1329, 1994 1312, 1992C1288, 1988 1274, 2010 1284, 2036C1287, 2045 1299, 2050 1312, 2048C1329, 2046 1335, 2038 1335, 2020z" fill="#D11C1C" class="Red" stroke="none" />
                        </g>
                      </g>
                    </g>
                  </g>
                </g>
              </g>
            </g>
          </g>
        </g>
      </g>
    </g>
  </g>
  <g transform="translate(0, 0.0002)">
    <g transform="matrix(1.1429, 0, 0, 1.1429, 0, 0)">
      <g transform="translate(0, -0.0005)">
        <g transform="matrix(0.875, 0, 0, 0.875, 0, 0)">
          <g transform="translate(0, -0.0001)">
            <g transform="translate(0, 0.0011)">
              <g transform="translate(0, 0.0013)">
                <g transform="matrix(1.1438, 0, 0, 1.1438, 0, 0)">
                  <g transform="translate(0, -0.0023)">
                    <g transform="matrix(0.0275, 0, 0, 0.0275, 0, 0)">
                      <g transform="matrix(1.3333, 0, 0, 1.3333, 0, 0)">
                        <g fill="#000000" transform="translate(0, 265) scale(0.1, -0.1)" stroke="none">
                          <path d="M4153, 2274L4126, 2247L3084, 2241L2042, 2234L1944, 2143C1889, 2093 1805, 2011 1755, 1961L1665, 1870L903, 1870L141, 1870L116, 1895C102, 1909 81, 1920 70, 1920C43, 1920 0, 1877 0, 1850C0, 1823 43, 1780 70, 1780C81, 1780 102, 1791 116, 1805L141, 1830L906, 1830L1672, 1830L1862, 2013L2051, 2197L2727, 2203C3099, 2207 3567, 2210 3766, 2210L4129, 2210L4154, 2185C4168, 2171 4189, 2160 4200, 2160C4227, 2160 4270, 2203 4270, 2230C4270, 2257 4227, 2300 4200, 2300C4189, 2300 4167, 2288 4153, 2274zM4225, 2230C4225, 2212 4219, 2204 4202, 2202C4178, 2198 4164, 2220 4174, 2246C4177, 2255 4189, 2260 4202, 2258C4219, 2256 4225, 2248 4225, 2230zM95, 1850C95, 1832 89, 1824 72, 1822C59, 1820 47, 1825 44, 1834C34, 1860 48, 1882 72, 1878C89, 1876 95, 1868 95, 1850z" fill="#D11C1C" class="Red" stroke="none" />
                        </g>
                      </g>
                    </g>
                  </g>
                </g>
              </g>
            </g>
          </g>
        </g>
      </g>
    </g>
  </g>
  <g transform="translate(0, 0.0002)">
    <g transform="matrix(1.1429, 0, 0, 1.1429, 0, 0)">
      <g transform="translate(0, -0.0005)">
        <g transform="matrix(0.875, 0, 0, 0.875, 0, 0)">
          <g transform="translate(0, -0.0001)">
            <g transform="translate(0, 0.0011)">
              <g transform="translate(0, 0.0013)">
                <g transform="matrix(1.1438, 0, 0, 1.1438, 0, 0)">
                  <g transform="translate(0, -0.0023)">
                    <g transform="matrix(0.0275, 0, 0, 0.0275, 0, 0)">
                      <g transform="matrix(1.3333, 0, 0, 1.3333, 0, 0)">
                        <g fill="#000000" transform="translate(0, 265) scale(0.1, -0.1)" stroke="none">
                          <path d="M3613, 2104L3586, 2077L2814, 2071L2042, 2064L1944, 1973C1889, 1923 1805, 1841 1755, 1791L1665, 1700L993, 1700L321, 1700L296, 1725C282, 1739 261, 1750 250, 1750C223, 1750 180, 1707 180, 1680C180, 1653 223, 1610 250, 1610C261, 1610 282, 1621 296, 1635L321, 1660L996, 1660L1672, 1660L1862, 1843L2051, 2027L2553, 2033C2829, 2037 3175, 2040 3322, 2040L3589, 2040L3614, 2015C3628, 2001 3649, 1990 3660, 1990C3687, 1990 3730, 2033 3730, 2060C3730, 2087 3687, 2130 3660, 2130C3649, 2130 3627, 2118 3613, 2104zM3685, 2060C3685, 2042 3679, 2034 3662, 2032C3638, 2028 3624, 2050 3634, 2076C3637, 2085 3649, 2090 3662, 2088C3679, 2086 3685, 2078 3685, 2060zM275, 1680C275, 1662 269, 1654 252, 1652C228, 1648 214, 1670 224, 1696C227, 1705 239, 1710 252, 1708C269, 1706 275, 1698 275, 1680z" fill="#D11C1C" class="Red" stroke="none" />
                        </g>
                      </g>
                    </g>
                  </g>
                </g>
              </g>
            </g>
          </g>
        </g>
      </g>
    </g>
  </g>
  <g transform="translate(0, 0.0002)">
    <g transform="matrix(1.1429, 0, 0, 1.1429, 0, 0)">
      <g transform="translate(0, -0.0005)">
        <g transform="matrix(0.875, 0, 0, 0.875, 0, 0)">
          <g transform="translate(0, -0.0001)">
            <g transform="translate(0, 0.0011)">
              <g transform="translate(0, 0.0013)">
                <g transform="matrix(1.1438, 0, 0, 1.1438, 0, 0)">
                  <g transform="translate(0, -0.0023)">
                    <g transform="matrix(0.0275, 0, 0, 0.0275, 0, 0)">
                      <g transform="matrix(1.3333, 0, 0, 1.3333, 0, 0)">
                        <g fill="#000000" transform="translate(0, 265) scale(0.1, -0.1)" stroke="none">
                          <path d="M3264, 1925L3239, 1900L2942, 1900C2779, 1900 2507, 1897 2338, 1893L2030, 1887L1846, 1708L1662, 1530L1081, 1530L501, 1530L476, 1555C444, 1587 416, 1587 385, 1555C353, 1524 353, 1496 385, 1465C416, 1433 444, 1433 476, 1465L501, 1490L1086, 1490L1672, 1490L1863, 1675L2055, 1860L2647, 1860L3239, 1860L3264, 1835C3278, 1821 3299, 1810 3310, 1810C3337, 1810 3380, 1853 3380, 1880C3380, 1907 3337, 1950 3310, 1950C3299, 1950 3278, 1939 3264, 1925zM3335, 1880C3335, 1862 3329, 1854 3312, 1852C3299, 1850 3287, 1855 3284, 1864C3274, 1890 3288, 1912 3312, 1908C3329, 1906 3335, 1898 3335, 1880zM455, 1510C455, 1492 449, 1484 432, 1482C419, 1480 407, 1485 404, 1494C394, 1520 408, 1542 432, 1538C449, 1536 455, 1528 455, 1510z" fill="#D11C1C" class="Red" stroke="none" />
                        </g>
                      </g>
                    </g>
                  </g>
                </g>
              </g>
            </g>
          </g>
        </g>
      </g>
    </g>
  </g>
  <g transform="translate(0, 0.0002)">
    <g transform="matrix(1.1429, 0, 0, 1.1429, 0, 0)">
      <g transform="translate(0, -0.0005)">
        <g transform="matrix(0.875, 0, 0, 0.875, 0, 0)">
          <g transform="translate(0, -0.0001)">
            <g transform="translate(0, 0.0011)">
              <g transform="translate(0, 0.0013)">
                <g transform="matrix(1.1438, 0, 0, 1.1438, 0, 0)">
                  <g transform="translate(0, -0.0023)">
                    <g transform="matrix(0.0275, 0, 0, 0.0275, 0, 0)">
                      <g transform="matrix(1.3333, 0, 0, 1.3333, 0, 0)">
                        <g fill="#000000" transform="translate(0, 265) scale(0.1, -0.1)" stroke="none">
                          <path d="M2243, 1733C2225, 1730 2220, 1722 2220, 1699L2220, 1670L2303, 1670C2397, 1670 2414, 1660 2426, 1602L2433, 1570L2346, 1570L2260, 1570L2260, 1540L2260, 1510L2345, 1510C2428, 1510 2430, 1509 2430, 1486C2430, 1449 2410, 1400 2390, 1390C2380, 1384 2338, 1380 2297, 1380C2225, 1380 2222, 1379 2218, 1355C2211, 1322 2219, 1318 2301, 1312C2352, 1309 2382, 1312 2416, 1325C2482, 1350 2504, 1401 2504, 1530C2503, 1650 2482, 1699 2420, 1724C2382, 1739 2296, 1743 2243, 1733z" fill="#FFFFFF" class="White" stroke="none" />
                        </g>
                      </g>
                    </g>
                  </g>
                </g>
              </g>
            </g>
          </g>
        </g>
      </g>
    </g>
  </g>
  <g transform="translate(0, 0.0002)">
    <g transform="matrix(1.1429, 0, 0, 1.1429, 0, 0)">
      <g transform="translate(0, -0.0005)">
        <g transform="matrix(0.875, 0, 0, 0.875, 0, 0)">
          <g transform="translate(0, -0.0001)">
            <g transform="translate(0, 0.0011)">
              <g transform="translate(0, 0.0013)">
                <g transform="matrix(1.1438, 0, 0, 1.1438, 0, 0)">
                  <g transform="translate(0, -0.0023)">
                    <g transform="matrix(0.0275, 0, 0, 0.0275, 0, 0)">
                      <g transform="matrix(1.3333, 0, 0, 1.3333, 0, 0)">
                        <g fill="#000000" transform="translate(0, 265) scale(0.1, -0.1)" stroke="none">
                          <path d="M1903, 1654C1884, 1635 1879, 1622 1883, 1600C1889, 1574 1879, 1562 1776, 1466L1662, 1360L1172, 1360L681, 1360L656, 1385C642, 1399 622, 1410 610, 1410C583, 1410 540, 1367 540, 1340C540, 1313 583, 1270 610, 1270C622, 1270 642, 1281 656, 1295L681, 1320L1177, 1320L1672, 1320L1794, 1434C1899, 1533 1919, 1547 1942, 1543C1962, 1539 1976, 1545 1994, 1563C2027, 1596 2027, 1624 1995, 1655C1964, 1687 1936, 1687 1903, 1654zM1975, 1610C1975, 1592 1969, 1584 1952, 1582C1928, 1578 1914, 1600 1924, 1626C1927, 1635 1939, 1640 1952, 1638C1969, 1636 1975, 1628 1975, 1610zM635, 1340C635, 1322 629, 1314 612, 1312C588, 1308 574, 1330 584, 1356C587, 1365 599, 1370 612, 1368C629, 1366 635, 1358 635, 1340z" fill="#D11C1C" class="Red" stroke="none" />
                        </g>
                      </g>
                    </g>
                  </g>
                </g>
              </g>
            </g>
          </g>
        </g>
      </g>
    </g>
  </g>
  <g transform="translate(0, 0.0002)">
    <g transform="matrix(1.1429, 0, 0, 1.1429, 0, 0)">
      <g transform="translate(0, -0.0005)">
        <g transform="matrix(0.875, 0, 0, 0.875, 0, 0)">
          <g transform="translate(0, -0.0001)">
            <g transform="translate(0, 0.0011)">
              <g transform="translate(0, 0.0013)">
                <g transform="matrix(1.1438, 0, 0, 1.1438, 0, 0)">
                  <g transform="translate(0, -0.0023)">
                    <g transform="matrix(0.0275, 0, 0, 0.0275, 0, 0)">
                      <g transform="matrix(1.3333, 0, 0, 1.3333, 0, 0)">
                        <g fill="#000000" transform="translate(0, 265) scale(0.1, -0.1)" stroke="none">
                          <path d="M2985, 1606C2946, 1588 2930, 1559 2923, 1496C2917, 1434 2933, 1367 2962, 1340C2989, 1315 3057, 1305 3123, 1316C3168, 1324 3175, 1328 3178, 1350C3181, 1375 3181, 1375 3110, 1372C3033, 1368 3000, 1383 3000, 1422C3000, 1438 3009, 1440 3066, 1440C3129, 1440 3167, 1451 3182, 1474C3193, 1490 3191, 1549 3179, 1572C3156, 1615 3048, 1634 2985, 1606zM3115, 1525C3115, 1495 3115, 1495 3052, 1492C2990, 1489 2988, 1489 2995, 1512C3008, 1553 3021, 1561 3069, 1558C3113, 1555 3115, 1554 3115, 1525z" fill="#FFFFFF" class="White" stroke="none" />
                        </g>
                      </g>
                    </g>
                  </g>
                </g>
              </g>
            </g>
          </g>
        </g>
      </g>
    </g>
  </g>
  <g transform="translate(0, 0.0002)">
    <g transform="matrix(1.1429, 0, 0, 1.1429, 0, 0)">
      <g transform="translate(0, -0.0005)">
        <g transform="matrix(0.875, 0, 0, 0.875, 0, 0)">
          <g transform="translate(0, -0.0001)">
            <g transform="translate(0, 0.0011)">
              <g transform="translate(0, 0.0013)">
                <g transform="matrix(1.1438, 0, 0, 1.1438, 0, 0)">
                  <g transform="translate(0, -0.0023)">
                    <g transform="matrix(0.0275, 0, 0, 0.0275, 0, 0)">
                      <g transform="matrix(1.3333, 0, 0, 1.3333, 0, 0)">
                        <g fill="#000000" transform="translate(0, 265) scale(0.1, -0.1)" stroke="none">
                          <path d="M3996, 1595C3952, 1572 3950, 1571 3950, 1590C3950, 1606 3943, 1610 3920, 1610L3890, 1610L3890, 1405L3890, 1200L3925, 1200L3960, 1200L3960, 1269L3960, 1339L3997, 1323C4042, 1305 4113, 1310 4140, 1335C4164, 1356 4180, 1410 4180, 1465C4180, 1600 4105, 1653 3996, 1595zM4091, 1543C4100, 1533 4105, 1503 4105, 1465C4105, 1390 4091, 1370 4041, 1370C3964, 1370 3960, 1374 3960, 1454C3960, 1526 3960, 1527 3993, 1543C4035, 1564 4074, 1564 4091, 1543z" fill="#FFFFFF" class="White" stroke="none" />
                        </g>
                      </g>
                    </g>
                  </g>
                </g>
              </g>
            </g>
          </g>
        </g>
      </g>
    </g>
  </g>
  <g transform="translate(0, 0.0002)">
    <g transform="matrix(1.1429, 0, 0, 1.1429, 0, 0)">
      <g transform="translate(0, -0.0005)">
        <g transform="matrix(0.875, 0, 0, 0.875, 0, 0)">
          <g transform="translate(0, -0.0001)">
            <g transform="translate(0, 0.0011)">
              <g transform="translate(0, 0.0013)">
                <g transform="matrix(1.1438, 0, 0, 1.1438, 0, 0)">
                  <g transform="translate(0, -0.0023)">
                    <g transform="matrix(0.0275, 0, 0, 0.0275, 0, 0)">
                      <g transform="matrix(1.3333, 0, 0, 1.3333, 0, 0)">
                        <g fill="#000000" transform="translate(0, 265) scale(0.1, -0.1)" stroke="none">
                          <path d="M4323, 1614C4264, 1600 4230, 1521 4244, 1424C4255, 1341 4289, 1315 4385, 1315C4494, 1315 4525, 1348 4525, 1465C4525, 1541 4512, 1578 4478, 1599C4456, 1613 4360, 1622 4323, 1614zM4441, 1543C4450, 1533 4455, 1503 4455, 1465C4455, 1388 4442, 1370 4385, 1370C4328, 1370 4315, 1388 4315, 1465C4315, 1542 4328, 1560 4385, 1560C4412, 1560 4432, 1554 4441, 1543z" fill="#FFFFFF" class="White" stroke="none" />
                        </g>
                      </g>
                    </g>
                  </g>
                </g>
              </g>
            </g>
          </g>
        </g>
      </g>
    </g>
  </g>
  <g transform="translate(0, 0.0002)">
    <g transform="matrix(1.1429, 0, 0, 1.1429, 0, 0)">
      <g transform="translate(0, -0.0005)">
        <g transform="matrix(0.875, 0, 0, 0.875, 0, 0)">
          <g transform="translate(0, -0.0001)">
            <g transform="translate(0, 0.0011)">
              <g transform="translate(0, 0.0013)">
                <g transform="matrix(1.1438, 0, 0, 1.1438, 0, 0)">
                  <g transform="translate(0, -0.0023)">
                    <g transform="matrix(0.0275, 0, 0, 0.0275, 0, 0)">
                      <g transform="matrix(1.3333, 0, 0, 1.3333, 0, 0)">
                        <g fill="#000000" transform="translate(0, 265) scale(0.1, -0.1)" stroke="none">
                          <path d="M5815, 1606C5776, 1588 5760, 1559 5753, 1496C5747, 1434 5763, 1367 5792, 1340C5819, 1315 5887, 1305 5953, 1316C5998, 1324 6005, 1328 6008, 1350C6011, 1375 6011, 1375 5940, 1372C5863, 1368 5830, 1383 5830, 1422C5830, 1438 5839, 1440 5896, 1440C5959, 1440 5997, 1451 6012, 1474C6023, 1490 6021, 1549 6009, 1572C5986, 1615 5878, 1634 5815, 1606zM5945, 1525C5945, 1495 5945, 1495 5882, 1492C5820, 1489 5818, 1489 5825, 1512C5838, 1553 5851, 1561 5899, 1558C5943, 1555 5945, 1554 5945, 1525z" fill="#FFFFFF" class="White" stroke="none" />
                        </g>
                      </g>
                    </g>
                  </g>
                </g>
              </g>
            </g>
          </g>
        </g>
      </g>
    </g>
  </g>
  <g transform="translate(0, 0.0002)">
    <g transform="matrix(1.1429, 0, 0, 1.1429, 0, 0)">
      <g transform="translate(0, -0.0005)">
        <g transform="matrix(0.875, 0, 0, 0.875, 0, 0)">
          <g transform="translate(0, -0.0001)">
            <g transform="translate(0, 0.0011)">
              <g transform="translate(0, 0.0013)">
                <g transform="matrix(1.1438, 0, 0, 1.1438, 0, 0)">
                  <g transform="translate(0, -0.0023)">
                    <g transform="matrix(0.0275, 0, 0, 0.0275, 0, 0)">
                      <g transform="matrix(1.3333, 0, 0, 1.3333, 0, 0)">
                        <g fill="#000000" transform="translate(0, 265) scale(0.1, -0.1)" stroke="none">
                          <path d="M2646, 1587C2628, 1569 2621, 1548 2616, 1490C2609, 1427 2604, 1413 2579, 1389C2532, 1345 2543, 1313 2601, 1325C2643, 1334 2665, 1376 2679, 1468C2691, 1549 2699, 1560 2743, 1560L2770, 1560L2770, 1440L2770, 1320L2805, 1320L2840, 1320L2840, 1465L2840, 1610L2755, 1610C2679, 1610 2667, 1607 2646, 1587z" fill="#FFFFFF" class="White" stroke="none" />
                        </g>
                      </g>
                    </g>
                  </g>
                </g>
              </g>
            </g>
          </g>
        </g>
      </g>
    </g>
  </g>
  <g transform="translate(0, 0.0002)">
    <g transform="matrix(1.1429, 0, 0, 1.1429, 0, 0)">
      <g transform="translate(0, -0.0005)">
        <g transform="matrix(0.875, 0, 0, 0.875, 0, 0)">
          <g transform="translate(0, -0.0001)">
            <g transform="translate(0, 0.0011)">
              <g transform="translate(0, 0.0013)">
                <g transform="matrix(1.1438, 0, 0, 1.1438, 0, 0)">
                  <g transform="translate(0, -0.0023)">
                    <g transform="matrix(0.0275, 0, 0, 0.0275, 0, 0)">
                      <g transform="matrix(1.3333, 0, 0, 1.3333, 0, 0)">
                        <g fill="#000000" transform="translate(0, 265) scale(0.1, -0.1)" stroke="none">
                          <path d="M3260, 1465L3260, 1320L3295, 1320L3330, 1320L3330, 1385C3330, 1450 3330, 1450 3358, 1450C3393, 1450 3412, 1430 3439, 1368C3458, 1323 3462, 1320 3495, 1320C3528, 1320 3531, 1322 3525, 1343C3507, 1403 3476, 1453 3447, 1465L3418, 1477L3444, 1484C3469, 1490 3497, 1532 3514, 1588C3521, 1608 3518, 1610 3486, 1610C3454, 1610 3449, 1606 3435, 1573C3413, 1521 3391, 1500 3358, 1500C3331, 1500 3330, 1501 3330, 1555L3330, 1610L3295, 1610L3260, 1610L3260, 1465z" fill="#FFFFFF" class="White" stroke="none" />
                        </g>
                      </g>
                    </g>
                  </g>
                </g>
              </g>
            </g>
          </g>
        </g>
      </g>
    </g>
  </g>
  <g transform="translate(0, 0.0002)">
    <g transform="matrix(1.1429, 0, 0, 1.1429, 0, 0)">
      <g transform="translate(0, -0.0005)">
        <g transform="matrix(0.875, 0, 0, 0.875, 0, 0)">
          <g transform="translate(0, -0.0001)">
            <g transform="translate(0, 0.0011)">
              <g transform="translate(0, 0.0013)">
                <g transform="matrix(1.1438, 0, 0, 1.1438, 0, 0)">
                  <g transform="translate(0, -0.0023)">
                    <g transform="matrix(0.0275, 0, 0, 0.0275, 0, 0)">
                      <g transform="matrix(1.3333, 0, 0, 1.3333, 0, 0)">
                        <g fill="#000000" transform="translate(0, 265) scale(0.1, -0.1)" stroke="none">
                          <path d="M3570, 1580C3570, 1551 3571, 1550 3620, 1550L3670, 1550L3670, 1435L3670, 1320L3705, 1320L3740, 1320L3740, 1435L3740, 1550L3790, 1550C3839, 1550 3840, 1551 3840, 1580L3840, 1610L3705, 1610L3570, 1610L3570, 1580z" fill="#FFFFFF" class="White" stroke="none" />
                        </g>
                      </g>
                    </g>
                  </g>
                </g>
              </g>
            </g>
          </g>
        </g>
      </g>
    </g>
  </g>
  <g transform="translate(0, 0.0002)">
    <g transform="matrix(1.1429, 0, 0, 1.1429, 0, 0)">
      <g transform="translate(0, -0.0005)">
        <g transform="matrix(0.875, 0, 0, 0.875, 0, 0)">
          <g transform="translate(0, -0.0001)">
            <g transform="translate(0, 0.0011)">
              <g transform="translate(0, 0.0013)">
                <g transform="matrix(1.1438, 0, 0, 1.1438, 0, 0)">
                  <g transform="translate(0, -0.0023)">
                    <g transform="matrix(0.0275, 0, 0, 0.0275, 0, 0)">
                      <g transform="matrix(1.3333, 0, 0, 1.3333, 0, 0)">
                        <g fill="#000000" transform="translate(0, 265) scale(0.1, -0.1)" stroke="none">
                          <path d="M4600, 1465L4600, 1320L4635, 1320L4670, 1320L4670, 1385L4670, 1450L4735, 1450L4800, 1450L4800, 1385L4800, 1320L4835, 1320L4870, 1320L4870, 1465L4870, 1610L4835, 1610L4800, 1610L4800, 1555L4800, 1500L4735, 1500L4670, 1500L4670, 1555L4670, 1610L4635, 1610L4600, 1610L4600, 1465z" fill="#FFFFFF" class="White" stroke="none" />
                        </g>
                      </g>
                    </g>
                  </g>
                </g>
              </g>
            </g>
          </g>
        </g>
      </g>
    </g>
  </g>
  <g transform="translate(0, 0.0002)">
    <g transform="matrix(1.1429, 0, 0, 1.1429, 0, 0)">
      <g transform="translate(0, -0.0005)">
        <g transform="matrix(0.875, 0, 0, 0.875, 0, 0)">
          <g transform="translate(0, -0.0001)">
            <g transform="translate(0, 0.0011)">
              <g transform="translate(0, 0.0013)">
                <g transform="matrix(1.1438, 0, 0, 1.1438, 0, 0)">
                  <g transform="translate(0, -0.0023)">
                    <g transform="matrix(0.0275, 0, 0, 0.0275, 0, 0)">
                      <g transform="matrix(1.3333, 0, 0, 1.3333, 0, 0)">
                        <g fill="#000000" transform="translate(0, 265) scale(0.1, -0.1)" stroke="none">
                          <path d="M4950, 1465L4950, 1320L4985, 1320L5020, 1320L5020, 1385L5020, 1450L5085, 1450L5150, 1450L5150, 1385L5150, 1320L5185, 1320L5220, 1320L5220, 1465L5220, 1610L5185, 1610L5150, 1610L5150, 1555L5150, 1500L5085, 1500L5020, 1500L5020, 1555L5020, 1610L4985, 1610L4950, 1610L4950, 1465z" fill="#FFFFFF" class="White" stroke="none" />
                        </g>
                      </g>
                    </g>
                  </g>
                </g>
              </g>
            </g>
          </g>
        </g>
      </g>
    </g>
  </g>
  <g transform="translate(0, 0.0002)">
    <g transform="matrix(1.1429, 0, 0, 1.1429, 0, 0)">
      <g transform="translate(0, -0.0005)">
        <g transform="matrix(0.875, 0, 0, 0.875, 0, 0)">
          <g transform="translate(0, -0.0001)">
            <g transform="translate(0, 0.0011)">
              <g transform="translate(0, 0.0013)">
                <g transform="matrix(1.1438, 0, 0, 1.1438, 0, 0)">
                  <g transform="translate(0, -0.0023)">
                    <g transform="matrix(0.0275, 0, 0, 0.0275, 0, 0)">
                      <g transform="matrix(1.3333, 0, 0, 1.3333, 0, 0)">
                        <g fill="#000000" transform="translate(0, 265) scale(0.1, -0.1)" stroke="none">
                          <path d="M5310, 1464L5310, 1318L5416, 1322C5513, 1325 5523, 1327 5541, 1349C5566, 1379 5566, 1450 5542, 1480C5527, 1498 5511, 1503 5452, 1508L5380, 1513L5380, 1561L5380, 1610L5345, 1610L5310, 1610L5310, 1464zM5478, 1448C5496, 1430 5492, 1392 5471, 1380C5460, 1375 5435, 1370 5416, 1370C5380, 1370 5380, 1370 5380, 1415L5380, 1460L5423, 1460C5447, 1460 5471, 1455 5478, 1448z" fill="#FFFFFF" class="White" stroke="none" />
                        </g>
                      </g>
                    </g>
                  </g>
                </g>
              </g>
            </g>
          </g>
        </g>
      </g>
    </g>
  </g>
  <g transform="translate(0, 0.0002)">
    <g transform="matrix(1.1429, 0, 0, 1.1429, 0, 0)">
      <g transform="translate(0, -0.0005)">
        <g transform="matrix(0.875, 0, 0, 0.875, 0, 0)">
          <g transform="translate(0, -0.0001)">
            <g transform="translate(0, 0.0011)">
              <g transform="translate(0, 0.0013)">
                <g transform="matrix(1.1438, 0, 0, 1.1438, 0, 0)">
                  <g transform="translate(0, -0.0023)">
                    <g transform="matrix(0.0275, 0, 0, 0.0275, 0, 0)">
                      <g transform="matrix(1.3333, 0, 0, 1.3333, 0, 0)">
                        <g fill="#000000" transform="translate(0, 265) scale(0.1, -0.1)" stroke="none">
                          <path d="M5610, 1465L5610, 1320L5645, 1320L5680, 1320L5680, 1465L5680, 1610L5645, 1610L5610, 1610L5610, 1465z" fill="#FFFFFF" class="White" stroke="none" />
                        </g>
                      </g>
                    </g>
                  </g>
                </g>
              </g>
            </g>
          </g>
        </g>
      </g>
    </g>
  </g>
  <g transform="translate(0, 0.0002)">
    <g transform="matrix(1.1429, 0, 0, 1.1429, 0, 0)">
      <g transform="translate(0, -0.0005)">
        <g transform="matrix(0.875, 0, 0, 0.875, 0, 0)">
          <g transform="translate(0, -0.0001)">
            <g transform="translate(0, 0.0011)">
              <g transform="translate(0, 0.0013)">
                <g transform="matrix(1.1438, 0, 0, 1.1438, 0, 0)">
                  <g transform="translate(0, -0.0023)">
                    <g transform="matrix(0.0275, 0, 0, 0.0275, 0, 0)">
                      <g transform="matrix(1.3333, 0, 0, 1.3333, 0, 0)">
                        <g fill="#000000" transform="translate(0, 265) scale(0.1, -0.1)" stroke="none">
                          <path d="M745, 1215C731, 1202 720, 1182 720, 1170C720, 1159 731, 1138 745, 1125C776, 1093 804, 1093 836, 1125L861, 1150L1254, 1150L1648, 1150L1743, 1060L1838, 970L2335, 963L2832, 957L2856, 933C2886, 903 2915, 904 2945, 935C2977, 966 2977, 994 2945, 1025C2914, 1057 2886, 1057 2854, 1025L2829, 1000L2343, 1000L1858, 1000L1758, 1095L1658, 1190L1259, 1190L861, 1190L836, 1215C804, 1247 776, 1247 745, 1215zM815, 1170C815, 1152 809, 1144 792, 1142C768, 1138 754, 1160 764, 1186C767, 1195 779, 1200 792, 1198C809, 1196 815, 1188 815, 1170zM2925, 980C2925, 962 2919, 954 2902, 952C2878, 948 2864, 970 2874, 996C2877, 1005 2889, 1010 2902, 1008C2919, 1006 2925, 998 2925, 980z" fill="#D11C1C" class="Red" stroke="none" />
                        </g>
                      </g>
                    </g>
                  </g>
                </g>
              </g>
            </g>
          </g>
        </g>
      </g>
    </g>
  </g>
  <g transform="translate(0, 0.0002)">
    <g transform="matrix(1.1429, 0, 0, 1.1429, 0, 0)">
      <g transform="translate(0, -0.0005)">
        <g transform="matrix(0.875, 0, 0, 0.875, 0, 0)">
          <g transform="translate(0, -0.0001)">
            <g transform="translate(0, 0.0011)">
              <g transform="translate(0, 0.0013)">
                <g transform="matrix(1.1438, 0, 0, 1.1438, 0, 0)">
                  <g transform="translate(0, -0.0023)">
                    <g transform="matrix(0.0275, 0, 0, 0.0275, 0, 0)">
                      <g transform="matrix(1.3333, 0, 0, 1.3333, 0, 0)">
                        <g fill="#000000" transform="translate(0, 265) scale(0.1, -0.1)" stroke="none">
                          <path d="M3210, 1025L3210, 820L3248, 820C3288, 820 3288, 820 3433, 1083C3448, 1111 3462, 1135 3463, 1136C3464, 1137 3464, 1067 3462, 979L3459, 820L3495, 820L3530, 820L3530, 1025L3530, 1230L3493, 1230C3456, 1230 3454, 1228 3400, 1133C3370, 1080 3330, 1009 3313, 977L3280, 917L3280, 1074L3280, 1230L3245, 1230L3210, 1230L3210, 1025z" fill="#FFFFFF" class="White" stroke="none" />
                        </g>
                      </g>
                    </g>
                  </g>
                </g>
              </g>
            </g>
          </g>
        </g>
      </g>
    </g>
  </g>
  <g transform="translate(0, 0.0002)">
    <g transform="matrix(1.1429, 0, 0, 1.1429, 0, 0)">
      <g transform="translate(0, -0.0005)">
        <g transform="matrix(0.875, 0, 0, 0.875, 0, 0)">
          <g transform="translate(0, -0.0001)">
            <g transform="translate(0, 0.0011)">
              <g transform="translate(0, 0.0013)">
                <g transform="matrix(1.1438, 0, 0, 1.1438, 0, 0)">
                  <g transform="translate(0, -0.0023)">
                    <g transform="matrix(0.0275, 0, 0, 0.0275, 0, 0)">
                      <g transform="matrix(1.3333, 0, 0, 1.3333, 0, 0)">
                        <g fill="#000000" transform="translate(0, 265) scale(0.1, -0.1)" stroke="none">
                          <path d="M4515, 1106C4476, 1088 4460, 1059 4453, 996C4447, 934 4463, 867 4492, 840C4519, 815 4587, 805 4653, 816C4698, 824 4705, 828 4708, 850C4711, 875 4711, 875 4640, 872C4563, 868 4530, 883 4530, 922C4530, 938 4539, 940 4596, 940C4659, 940 4697, 951 4712, 974C4723, 990 4721, 1049 4709, 1072C4686, 1115 4578, 1134 4515, 1106zM4645, 1025C4645, 995 4645, 995 4582, 992C4520, 989 4518, 989 4525, 1012C4538, 1053 4551, 1061 4599, 1058C4643, 1055 4645, 1054 4645, 1025z" fill="#FFFFFF" class="White" stroke="none" />
                        </g>
                      </g>
                    </g>
                  </g>
                </g>
              </g>
            </g>
          </g>
        </g>
      </g>
    </g>
  </g>
  <g transform="translate(0, 0.0002)">
    <g transform="matrix(1.1429, 0, 0, 1.1429, 0, 0)">
      <g transform="translate(0, -0.0005)">
        <g transform="matrix(0.875, 0, 0, 0.875, 0, 0)">
          <g transform="translate(0, -0.0001)">
            <g transform="translate(0, 0.0011)">
              <g transform="translate(0, 0.0013)">
                <g transform="matrix(1.1438, 0, 0, 1.1438, 0, 0)">
                  <g transform="translate(0, -0.0023)">
                    <g transform="matrix(0.0275, 0, 0, 0.0275, 0, 0)">
                      <g transform="matrix(1.3333, 0, 0, 1.3333, 0, 0)">
                        <g fill="#000000" transform="translate(0, 265) scale(0.1, -0.1)" stroke="none">
                          <path d="M5205, 1106C5166, 1088 5150, 1059 5143, 996C5137, 934 5153, 867 5182, 840C5209, 815 5277, 805 5343, 816C5388, 824 5395, 828 5398, 850C5401, 875 5401, 875 5330, 872C5253, 868 5220, 883 5220, 922C5220, 938 5229, 940 5286, 940C5349, 940 5387, 951 5402, 974C5413, 990 5411, 1049 5399, 1072C5376, 1115 5268, 1134 5205, 1106zM5335, 1025C5335, 995 5335, 995 5272, 992C5210, 989 5208, 989 5215, 1012C5228, 1053 5241, 1061 5289, 1058C5333, 1055 5335, 1054 5335, 1025z" fill="#FFFFFF" class="White" stroke="none" />
                        </g>
                      </g>
                    </g>
                  </g>
                </g>
              </g>
            </g>
          </g>
        </g>
      </g>
    </g>
  </g>
  <g transform="translate(0, 0.0002)">
    <g transform="matrix(1.1429, 0, 0, 1.1429, 0, 0)">
      <g transform="translate(0, -0.0005)">
        <g transform="matrix(0.875, 0, 0, 0.875, 0, 0)">
          <g transform="translate(0, -0.0001)">
            <g transform="translate(0, 0.0011)">
              <g transform="translate(0, 0.0013)">
                <g transform="matrix(1.1438, 0, 0, 1.1438, 0, 0)">
                  <g transform="translate(0, -0.0023)">
                    <g transform="matrix(0.0275, 0, 0, 0.0275, 0, 0)">
                      <g transform="matrix(1.3333, 0, 0, 1.3333, 0, 0)">
                        <g fill="#000000" transform="translate(0, 265) scale(0.1, -0.1)" stroke="none">
                          <path d="M5586, 1095C5542, 1072 5540, 1071 5540, 1090C5540, 1106 5533, 1110 5510, 1110L5480, 1110L5480, 905L5480, 700L5515, 700L5550, 700L5550, 769L5550, 839L5587, 823C5632, 805 5703, 810 5730, 835C5754, 856 5770, 910 5770, 965C5770, 1100 5695, 1153 5586, 1095zM5681, 1043C5690, 1033 5695, 1003 5695, 965C5695, 890 5681, 870 5631, 870C5554, 870 5550, 874 5550, 954C5550, 1026 5550, 1027 5583, 1043C5625, 1064 5664, 1064 5681, 1043z" fill="#FFFFFF" class="White" stroke="none" />
                        </g>
                      </g>
                    </g>
                  </g>
                </g>
              </g>
            </g>
          </g>
        </g>
      </g>
    </g>
  </g>
  <g transform="translate(0, 0.0002)">
    <g transform="matrix(1.1429, 0, 0, 1.1429, 0, 0)">
      <g transform="translate(0, -0.0005)">
        <g transform="matrix(0.875, 0, 0, 0.875, 0, 0)">
          <g transform="translate(0, -0.0001)">
            <g transform="translate(0, 0.0011)">
              <g transform="translate(0, 0.0013)">
                <g transform="matrix(1.1438, 0, 0, 1.1438, 0, 0)">
                  <g transform="translate(0, -0.0023)">
                    <g transform="matrix(0.0275, 0, 0, 0.0275, 0, 0)">
                      <g transform="matrix(1.3333, 0, 0, 1.3333, 0, 0)">
                        <g fill="#000000" transform="translate(0, 265) scale(0.1, -0.1)" stroke="none">
                          <path d="M6705, 1106C6666, 1088 6650, 1059 6643, 996C6637, 934 6653, 867 6682, 840C6709, 815 6777, 805 6843, 816C6888, 824 6895, 828 6898, 850C6901, 875 6901, 875 6830, 872C6753, 868 6720, 883 6720, 922C6720, 938 6729, 940 6786, 940C6849, 940 6887, 951 6902, 974C6913, 990 6911, 1049 6899, 1072C6876, 1115 6768, 1134 6705, 1106zM6835, 1025C6835, 995 6835, 995 6772, 992C6710, 989 6708, 989 6715, 1012C6728, 1053 6741, 1061 6789, 1058C6833, 1055 6835, 1054 6835, 1025z" fill="#FFFFFF" class="White" stroke="none" />
                        </g>
                      </g>
                    </g>
                  </g>
                </g>
              </g>
            </g>
          </g>
        </g>
      </g>
    </g>
  </g>
  <g transform="translate(0, 0.0002)">
    <g transform="matrix(1.1429, 0, 0, 1.1429, 0, 0)">
      <g transform="translate(0, -0.0005)">
        <g transform="matrix(0.875, 0, 0, 0.875, 0, 0)">
          <g transform="translate(0, -0.0001)">
            <g transform="translate(0, 0.0011)">
              <g transform="translate(0, 0.0013)">
                <g transform="matrix(1.1438, 0, 0, 1.1438, 0, 0)">
                  <g transform="translate(0, -0.0023)">
                    <g transform="matrix(0.0275, 0, 0, 0.0275, 0, 0)">
                      <g transform="matrix(1.3333, 0, 0, 1.3333, 0, 0)">
                        <g fill="#000000" transform="translate(0, 265) scale(0.1, -0.1)" stroke="none">
                          <path d="M3620, 965L3620, 820L3655, 820L3690, 820L3690, 885L3690, 950L3755, 950L3820, 950L3820, 885L3820, 820L3855, 820L3890, 820L3890, 965L3890, 1110L3855, 1110L3820, 1110L3820, 1055L3820, 1000L3755, 1000L3690, 1000L3690, 1055L3690, 1110L3655, 1110L3620, 1110L3620, 965z" fill="#FFFFFF" class="White" stroke="none" />
                        </g>
                      </g>
                    </g>
                  </g>
                </g>
              </g>
            </g>
          </g>
        </g>
      </g>
    </g>
  </g>
  <g transform="translate(0, 0.0002)">
    <g transform="matrix(1.1429, 0, 0, 1.1429, 0, 0)">
      <g transform="translate(0, -0.0005)">
        <g transform="matrix(0.875, 0, 0, 0.875, 0, 0)">
          <g transform="translate(0, -0.0001)">
            <g transform="translate(0, 0.0011)">
              <g transform="translate(0, 0.0013)">
                <g transform="matrix(1.1438, 0, 0, 1.1438, 0, 0)">
                  <g transform="translate(0, -0.0023)">
                    <g transform="matrix(0.0275, 0, 0, 0.0275, 0, 0)">
                      <g transform="matrix(1.3333, 0, 0, 1.3333, 0, 0)">
                        <g fill="#000000" transform="translate(0, 265) scale(0.1, -0.1)" stroke="none">
                          <path d="M3970, 1100C3970, 1071 4007, 1006 4032, 991L4060, 973L4035, 962C4019, 955 4000, 930 3985, 898C3952, 828 3953, 820 3994, 820C4024, 820 4029, 824 4045, 866C4067, 923 4092, 950 4125, 950C4149, 950 4150, 948 4150, 885L4150, 820L4180, 820L4210, 820L4210, 886L4210, 951L4243, 948C4271, 945 4278, 938 4305, 883C4333, 825 4338, 820 4368, 820C4405, 820 4405, 822 4385, 881C4367, 930 4334, 970 4311, 970C4301, 970 4304, 975 4319, 983C4346, 996 4375, 1039 4385, 1083C4392, 1108 4390, 1110 4359, 1110C4328, 1109 4323, 1104 4300, 1057C4278, 1012 4271, 1005 4243, 1002L4210, 999L4210, 1054C4210, 1110 4210, 1110 4180, 1110C4150, 1110 4150, 1110 4150, 1054L4150, 999L4118, 1002C4089, 1005 4082, 1012 4060, 1057C4038, 1104 4032, 1109 4003, 1110C3985, 1110 3970, 1106 3970, 1100z" fill="#FFFFFF" class="White" stroke="none" />
                        </g>
                      </g>
                    </g>
                  </g>
                </g>
              </g>
            </g>
          </g>
        </g>
      </g>
    </g>
  </g>
  <g transform="translate(0, 0.0002)">
    <g transform="matrix(1.1429, 0, 0, 1.1429, 0, 0)">
      <g transform="translate(0, -0.0005)">
        <g transform="matrix(0.875, 0, 0, 0.875, 0, 0)">
          <g transform="translate(0, -0.0001)">
            <g transform="translate(0, 0.0011)">
              <g transform="translate(0, 0.0013)">
                <g transform="matrix(1.1438, 0, 0, 1.1438, 0, 0)">
                  <g transform="translate(0, -0.0023)">
                    <g transform="matrix(0.0275, 0, 0, 0.0275, 0, 0)">
                      <g transform="matrix(1.3333, 0, 0, 1.3333, 0, 0)">
                        <g fill="#000000" transform="translate(0, 265) scale(0.1, -0.1)" stroke="none">
                          <path d="M4790, 965L4790, 820L4825, 820L4860, 820L4860, 885L4860, 950L4925, 950L4990, 950L4990, 885L4990, 820L5025, 820L5060, 820L5060, 965L5060, 1110L5025, 1110L4990, 1110L4990, 1055L4990, 1000L4925, 1000L4860, 1000L4860, 1055L4860, 1110L4825, 1110L4790, 1110L4790, 965z" fill="#FFFFFF" class="White" stroke="none" />
                        </g>
                      </g>
                    </g>
                  </g>
                </g>
              </g>
            </g>
          </g>
        </g>
      </g>
    </g>
  </g>
  <g transform="translate(0, 0.0002)">
    <g transform="matrix(1.1429, 0, 0, 1.1429, 0, 0)">
      <g transform="translate(0, -0.0005)">
        <g transform="matrix(0.875, 0, 0, 0.875, 0, 0)">
          <g transform="translate(0, -0.0001)">
            <g transform="translate(0, 0.0011)">
              <g transform="translate(0, 0.0013)">
                <g transform="matrix(1.1438, 0, 0, 1.1438, 0, 0)">
                  <g transform="translate(0, -0.0023)">
                    <g transform="matrix(0.0275, 0, 0, 0.0275, 0, 0)">
                      <g transform="matrix(1.3333, 0, 0, 1.3333, 0, 0)">
                        <g fill="#000000" transform="translate(0, 265) scale(0.1, -0.1)" stroke="none">
                          <path d="M5840, 965L5840, 820L5875, 820L5910, 820L5910, 885L5910, 950L5975, 950L6040, 950L6040, 885L6040, 820L6075, 820L6110, 820L6110, 965L6110, 1110L6075, 1110L6040, 1110L6040, 1055L6040, 1000L5975, 1000L5910, 1000L5910, 1055L5910, 1110L5875, 1110L5840, 1110L5840, 965z" fill="#FFFFFF" class="White" stroke="none" />
                        </g>
                      </g>
                    </g>
                  </g>
                </g>
              </g>
            </g>
          </g>
        </g>
      </g>
    </g>
  </g>
  <g transform="translate(0, 0.0002)">
    <g transform="matrix(1.1429, 0, 0, 1.1429, 0, 0)">
      <g transform="translate(0, -0.0005)">
        <g transform="matrix(0.875, 0, 0, 0.875, 0, 0)">
          <g transform="translate(0, -0.0001)">
            <g transform="translate(0, 0.0011)">
              <g transform="translate(0, 0.0013)">
                <g transform="matrix(1.1438, 0, 0, 1.1438, 0, 0)">
                  <g transform="translate(0, -0.0023)">
                    <g transform="matrix(0.0275, 0, 0, 0.0275, 0, 0)">
                      <g transform="matrix(1.3333, 0, 0, 1.3333, 0, 0)">
                        <g fill="#000000" transform="translate(0, 265) scale(0.1, -0.1)" stroke="none">
                          <path d="M6190, 964L6190, 818L6296, 822C6393, 825 6403, 827 6421, 849C6446, 879 6446, 950 6422, 980C6407, 998 6391, 1003 6332, 1008L6260, 1013L6260, 1061L6260, 1110L6225, 1110L6190, 1110L6190, 964zM6358, 948C6376, 930 6372, 892 6351, 880C6340, 875 6315, 870 6296, 870C6260, 870 6260, 870 6260, 915L6260, 960L6303, 960C6327, 960 6351, 955 6358, 948z" fill="#FFFFFF" class="White" stroke="none" />
                        </g>
                      </g>
                    </g>
                  </g>
                </g>
              </g>
            </g>
          </g>
        </g>
      </g>
    </g>
  </g>
  <g transform="translate(0, 0.0002)">
    <g transform="matrix(1.1429, 0, 0, 1.1429, 0, 0)">
      <g transform="translate(0, -0.0005)">
        <g transform="matrix(0.875, 0, 0, 0.875, 0, 0)">
          <g transform="translate(0, -0.0001)">
            <g transform="translate(0, 0.0011)">
              <g transform="translate(0, 0.0013)">
                <g transform="matrix(1.1438, 0, 0, 1.1438, 0, 0)">
                  <g transform="translate(0, -0.0023)">
                    <g transform="matrix(0.0275, 0, 0, 0.0275, 0, 0)">
                      <g transform="matrix(1.3333, 0, 0, 1.3333, 0, 0)">
                        <g fill="#000000" transform="translate(0, 265) scale(0.1, -0.1)" stroke="none">
                          <path d="M6490, 965L6490, 820L6525, 820L6560, 820L6560, 965L6560, 1110L6525, 1110L6490, 1110L6490, 965z" fill="#FFFFFF" class="White" stroke="none" />
                        </g>
                      </g>
                    </g>
                  </g>
                </g>
              </g>
            </g>
          </g>
        </g>
      </g>
    </g>
  </g>
  <g transform="translate(0, 0.0002)">
    <g transform="matrix(1.1429, 0, 0, 1.1429, 0, 0)">
      <g transform="translate(0, -0.0005)">
        <g transform="matrix(0.875, 0, 0, 0.875, 0, 0)">
          <g transform="translate(0, -0.0001)">
            <g transform="translate(0, 0.0011)">
              <g transform="translate(0, 0.0013)">
                <g transform="matrix(1.1438, 0, 0, 1.1438, 0, 0)">
                  <g transform="translate(0, -0.0023)">
                    <g transform="matrix(0.0275, 0, 0, 0.0275, 0, 0)">
                      <g transform="matrix(1.3333, 0, 0, 1.3333, 0, 0)">
                        <g fill="#000000" transform="translate(0, 265) scale(0.1, -0.1)" stroke="none">
                          <path d="M925, 1045C911, 1032 900, 1012 900, 1000C900, 989 911, 968 925, 955C956, 923 984, 923 1016, 955L1041, 980L1344, 980L1648, 980L1743, 890L1838, 800L2115, 793C2388, 787 2393, 786 2416, 763C2446, 733 2475, 734 2505, 765C2537, 796 2537, 824 2505, 855C2474, 887 2446, 887 2414, 855L2389, 830L2123, 830L1858, 830L1758, 925L1658, 1020L1349, 1020L1041, 1020L1016, 1045C984, 1077 956, 1077 925, 1045zM995, 1000C995, 982 989, 974 972, 972C948, 968 934, 990 944, 1016C947, 1025 959, 1030 972, 1028C989, 1026 995, 1018 995, 1000zM2485, 810C2485, 792 2479, 784 2462, 782C2449, 780 2437, 785 2434, 794C2424, 820 2438, 842 2462, 838C2479, 836 2485, 828 2485, 810z" fill="#D11C1C" class="Red" stroke="none" />
                        </g>
                      </g>
                    </g>
                  </g>
                </g>
              </g>
            </g>
          </g>
        </g>
      </g>
    </g>
  </g>
  <g transform="translate(0, 0.0002)">
    <g transform="matrix(1.1429, 0, 0, 1.1429, 0, 0)">
      <g transform="translate(0, -0.0005)">
        <g transform="matrix(0.875, 0, 0, 0.875, 0, 0)">
          <g transform="translate(0, -0.0001)">
            <g transform="translate(0, 0.0011)">
              <g transform="translate(0, 0.0013)">
                <g transform="matrix(1.1438, 0, 0, 1.1438, 0, 0)">
                  <g transform="translate(0, -0.0023)">
                    <g transform="matrix(0.0275, 0, 0, 0.0275, 0, 0)">
                      <g transform="matrix(1.3333, 0, 0, 1.3333, 0, 0)">
                        <g fill="#000000" transform="translate(0, 265) scale(0.1, -0.1)" stroke="none">
                          <path d="M1105, 875C1091, 862 1080, 842 1080, 830C1080, 819 1091, 798 1105, 785C1136, 753 1164, 753 1196, 785L1221, 810L1432, 810L1643, 810L1745, 715L1848, 620L3102, 626L4356, 633L4382, 607C4416, 573 4444, 573 4475, 605C4507, 636 4507, 664 4475, 695C4443, 728 4414, 726 4380, 690L4352, 660L3105, 660L1858, 660L1757, 755L1656, 850L1438, 850L1221, 850L1196, 875C1164, 907 1136, 907 1105, 875zM1175, 830C1175, 812 1169, 804 1152, 802C1128, 798 1114, 820 1124, 846C1127, 855 1139, 860 1152, 858C1169, 856 1175, 848 1175, 830zM4455, 650C4455, 632 4449, 624 4432, 622C4408, 618 4394, 640 4404, 666C4407, 675 4419, 680 4432, 678C4449, 676 4455, 668 4455, 650z" fill="#D11C1C" class="Red" stroke="none" />
                        </g>
                      </g>
                    </g>
                  </g>
                </g>
              </g>
            </g>
          </g>
        </g>
      </g>
    </g>
  </g>
  <g transform="translate(0, 0.0002)">
    <g transform="matrix(1.1429, 0, 0, 1.1429, 0, 0)">
      <g transform="translate(0, -0.0005)">
        <g transform="matrix(0.875, 0, 0, 0.875, 0, 0)">
          <g transform="translate(0, -0.0001)">
            <g transform="translate(0, 0.0011)">
              <g transform="translate(0, 0.0013)">
                <g transform="matrix(1.1438, 0, 0, 1.1438, 0, 0)">
                  <g transform="translate(0, -0.0023)">
                    <g transform="matrix(0.0275, 0, 0, 0.0275, 0, 0)">
                      <g transform="matrix(1.3333, 0, 0, 1.3333, 0, 0)">
                        <g fill="#000000" transform="translate(0, 265) scale(0.1, -0.1)" stroke="none">
                          <path d="M5253, 734C5209, 724 5173, 678 5160, 615C5146, 546 5152, 439 5173, 388C5199, 326 5271, 300 5384, 314C5437, 321 5440, 323 5440, 350L5440, 378L5360, 377C5290, 375 5278, 378 5258, 398C5237, 419 5235, 429 5235, 525C5235, 620 5237, 631 5258, 652C5278, 672 5290, 675 5354, 674C5425, 673 5428, 674 5433, 697C5435, 710 5433, 723 5427, 727C5414, 735 5282, 740 5253, 734z" fill="#FFFFFF" class="White" stroke="none" />
                        </g>
                      </g>
                    </g>
                  </g>
                </g>
              </g>
            </g>
          </g>
        </g>
      </g>
    </g>
  </g>
  <g transform="translate(0, 0.0002)">
    <g transform="matrix(1.1429, 0, 0, 1.1429, 0, 0)">
      <g transform="translate(0, -0.0005)">
        <g transform="matrix(0.875, 0, 0, 0.875, 0, 0)">
          <g transform="translate(0, -0.0001)">
            <g transform="translate(0, 0.0011)">
              <g transform="translate(0, 0.0013)">
                <g transform="matrix(1.1438, 0, 0, 1.1438, 0, 0)">
                  <g transform="translate(0, -0.0023)">
                    <g transform="matrix(0.0275, 0, 0, 0.0275, 0, 0)">
                      <g transform="matrix(1.3333, 0, 0, 1.3333, 0, 0)">
                        <g fill="#000000" transform="translate(0, 265) scale(0.1, -0.1)" stroke="none">
                          <path d="M1285, 705C1271, 692 1260, 672 1260, 660C1260, 649 1271, 628 1285, 615C1316, 583 1344, 583 1376, 615C1400, 639 1406, 640 1522, 640L1643, 640L1744, 546L1846, 452L3322, 461L4798, 471L4824, 445C4856, 413 4884, 413 4915, 445C4947, 476 4947, 504 4915, 535C4883, 568 4854, 566 4821, 532L4795, 503L3327, 496L1860, 488L1758, 584L1656, 680L1528, 680C1406, 680 1400, 681 1376, 705C1344, 737 1316, 737 1285, 705zM1355, 660C1355, 642 1349, 634 1332, 632C1319, 630 1307, 635 1304, 644C1294, 670 1308, 692 1332, 688C1349, 686 1355, 678 1355, 660zM4895, 490C4895, 472 4889, 464 4872, 462C4859, 460 4847, 465 4844, 474C4834, 500 4848, 522 4872, 518C4889, 516 4895, 508 4895, 490z" fill="#D11C1C" class="Red" stroke="none" />
                        </g>
                      </g>
                    </g>
                  </g>
                </g>
              </g>
            </g>
          </g>
        </g>
      </g>
    </g>
  </g>
  <g transform="translate(0, 0.0002)">
    <g transform="matrix(1.1429, 0, 0, 1.1429, 0, 0)">
      <g transform="translate(0, -0.0005)">
        <g transform="matrix(0.875, 0, 0, 0.875, 0, 0)">
          <g transform="translate(0, -0.0001)">
            <g transform="translate(0, 0.0011)">
              <g transform="translate(0, 0.0013)">
                <g transform="matrix(1.1438, 0, 0, 1.1438, 0, 0)">
                  <g transform="translate(0, -0.0023)">
                    <g transform="matrix(0.0275, 0, 0, 0.0275, 0, 0)">
                      <g transform="matrix(1.3333, 0, 0, 1.3333, 0, 0)">
                        <g fill="#000000" transform="translate(0, 265) scale(0.1, -0.1)" stroke="none">
                          <path d="M5934, 609C5883, 594 5865, 557 5865, 465C5865, 338 5907, 301 6034, 314C6099, 321 6116, 330 6107, 354C6102, 366 6086, 370 6037, 370C5955, 370 5936, 388 5936, 465C5936, 542 5955, 560 6037, 560C6097, 560 6100, 561 6100, 584C6100, 603 6094, 608 6063, 614C6013, 622 5972, 620 5934, 609z" fill="#FFFFFF" class="White" stroke="none" />
                        </g>
                      </g>
                    </g>
                  </g>
                </g>
              </g>
            </g>
          </g>
        </g>
      </g>
    </g>
  </g>
  <g transform="translate(0, 0.0002)">
    <g transform="matrix(1.1429, 0, 0, 1.1429, 0, 0)">
      <g transform="translate(0, -0.0005)">
        <g transform="matrix(0.875, 0, 0, 0.875, 0, 0)">
          <g transform="translate(0, -0.0001)">
            <g transform="translate(0, 0.0011)">
              <g transform="translate(0, 0.0013)">
                <g transform="matrix(1.1438, 0, 0, 1.1438, 0, 0)">
                  <g transform="translate(0, -0.0023)">
                    <g transform="matrix(0.0275, 0, 0, 0.0275, 0, 0)">
                      <g transform="matrix(1.3333, 0, 0, 1.3333, 0, 0)">
                        <g fill="#000000" transform="translate(0, 265) scale(0.1, -0.1)" stroke="none">
                          <path d="M6525, 606C6486, 588 6470, 559 6463, 496C6457, 434 6473, 367 6502, 340C6529, 315 6597, 305 6663, 316C6708, 324 6715, 328 6718, 350C6721, 375 6721, 375 6650, 372C6573, 368 6540, 383 6540, 422C6540, 438 6549, 440 6606, 440C6669, 440 6707, 451 6722, 474C6733, 490 6731, 549 6719, 572C6696, 615 6588, 634 6525, 606zM6655, 525C6655, 495 6655, 495 6592, 492C6530, 489 6528, 489 6535, 512C6548, 553 6561, 561 6609, 558C6653, 555 6655, 554 6655, 525z" fill="#FFFFFF" class="White" stroke="none" />
                        </g>
                      </g>
                    </g>
                  </g>
                </g>
              </g>
            </g>
          </g>
        </g>
      </g>
    </g>
  </g>
  <g transform="translate(0, 0.0002)">
    <g transform="matrix(1.1429, 0, 0, 1.1429, 0, 0)">
      <g transform="translate(0, -0.0005)">
        <g transform="matrix(0.875, 0, 0, 0.875, 0, 0)">
          <g transform="translate(0, -0.0001)">
            <g transform="translate(0, 0.0011)">
              <g transform="translate(0, 0.0013)">
                <g transform="matrix(1.1438, 0, 0, 1.1438, 0, 0)">
                  <g transform="translate(0, -0.0023)">
                    <g transform="matrix(0.0275, 0, 0, 0.0275, 0, 0)">
                      <g transform="matrix(1.3333, 0, 0, 1.3333, 0, 0)">
                        <g fill="#000000" transform="translate(0, 265) scale(0.1, -0.1)" stroke="none">
                          <path d="M5510, 465L5510, 320L5540, 320C5566, 320 5579, 332 5645, 421L5720, 521L5720, 421L5720, 320L5750, 320L5780, 320L5780, 465L5780, 610L5753, 610C5729, 609 5713, 593 5648, 504L5570, 398L5570, 504L5570, 610L5540, 610L5510, 610L5510, 465z" fill="#FFFFFF" class="White" stroke="none" />
                        </g>
                      </g>
                    </g>
                  </g>
                </g>
              </g>
            </g>
          </g>
        </g>
      </g>
    </g>
  </g>
  <g transform="translate(0, 0.0002)">
    <g transform="matrix(1.1429, 0, 0, 1.1429, 0, 0)">
      <g transform="translate(0, -0.0005)">
        <g transform="matrix(0.875, 0, 0, 0.875, 0, 0)">
          <g transform="translate(0, -0.0001)">
            <g transform="translate(0, 0.0011)">
              <g transform="translate(0, 0.0013)">
                <g transform="matrix(1.1438, 0, 0, 1.1438, 0, 0)">
                  <g transform="translate(0, -0.0023)">
                    <g transform="matrix(0.0275, 0, 0, 0.0275, 0, 0)">
                      <g transform="matrix(1.3333, 0, 0, 1.3333, 0, 0)">
                        <g fill="#000000" transform="translate(0, 265) scale(0.1, -0.1)" stroke="none">
                          <path d="M6150, 580C6150, 551 6151, 550 6200, 550L6250, 550L6250, 435L6250, 320L6285, 320L6320, 320L6320, 435L6320, 550L6370, 550C6419, 550 6420, 551 6420, 580L6420, 610L6285, 610L6150, 610L6150, 580z" fill="#FFFFFF" class="White" stroke="none" />
                        </g>
                      </g>
                    </g>
                  </g>
                </g>
              </g>
            </g>
          </g>
        </g>
      </g>
    </g>
  </g>
  <g transform="translate(0, 0.0002)">
    <g transform="matrix(1.1429, 0, 0, 1.1429, 0, 0)">
      <g transform="translate(0, -0.0005)">
        <g transform="matrix(0.875, 0, 0, 0.875, 0, 0)">
          <g transform="translate(0, -0.0001)">
            <g transform="translate(0, 0.0011)">
              <g transform="translate(0, 0.0013)">
                <g transform="matrix(1.1438, 0, 0, 1.1438, 0, 0)">
                  <g transform="translate(0, -0.0023)">
                    <g transform="matrix(0.0275, 0, 0, 0.0275, 0, 0)">
                      <g transform="matrix(1.3333, 0, 0, 1.3333, 0, 0)">
                        <g fill="#000000" transform="translate(0, 265) scale(0.1, -0.1)" stroke="none">
                          <path d="M6816, 598C6813, 591 6809, 525 6805, 453L6799, 320L6829, 320C6867, 320 6870, 331 6870, 451C6870, 505 6874, 550 6878, 550C6883, 550 6899, 508 6916, 458L6945, 365L6989, 365L7034, 365L7064, 458C7081, 508 7098, 550 7102, 550C7106, 550 7110, 508 7110, 458C7110, 335 7115, 320 7152, 320L7181, 320L7175, 453C7171, 525 7167, 591 7164, 598C7161, 607 7144, 610 7108, 608L7055, 605L7028, 525C7014, 481 7001, 435 7001, 423C6999, 380 6985, 401 6963, 478C6925, 613 6928, 610 6870, 610C6838, 610 6818, 605 6816, 598z" fill="#FFFFFF" class="White" stroke="none" />
                        </g>
                      </g>
                    </g>
                  </g>
                </g>
              </g>
            </g>
          </g>
        </g>
      </g>
    </g>
  </g>
  <g transform="translate(0, 0.0002)">
    <g transform="matrix(1.1429, 0, 0, 1.1429, 0, 0)">
      <g transform="translate(0, -0.0005)">
        <g transform="matrix(0.875, 0, 0, 0.875, 0, 0)">
          <g transform="translate(0, -0.0001)">
            <g transform="translate(0, 0.0011)">
              <g transform="translate(0, 0.0013)">
                <g transform="matrix(1.1438, 0, 0, 1.1438, 0, 0)">
                  <g transform="translate(0, -0.0023)">
                    <g transform="matrix(0.0275, 0, 0, 0.0275, 0, 0)">
                      <g transform="matrix(1.3333, 0, 0, 1.3333, 0, 0)">
                        <g fill="#000000" transform="translate(0, 265) scale(0.1, -0.1)" stroke="none">
                          <path d="M7260, 464L7260, 318L7366, 322C7463, 325 7473, 327 7491, 349C7516, 379 7516, 450 7492, 480C7477, 498 7461, 503 7402, 508L7330, 513L7330, 561L7330, 610L7295, 610L7260, 610L7260, 464zM7428, 448C7446, 430 7442, 392 7421, 380C7410, 375 7385, 370 7366, 370C7330, 370 7330, 370 7330, 415L7330, 460L7373, 460C7397, 460 7421, 455 7428, 448z" fill="#FFFFFF" class="White" stroke="none" />
                        </g>
                      </g>
                    </g>
                  </g>
                </g>
              </g>
            </g>
          </g>
        </g>
      </g>
    </g>
  </g>
  <g transform="translate(0, 0.0002)">
    <g transform="matrix(1.1429, 0, 0, 1.1429, 0, 0)">
      <g transform="translate(0, -0.0005)">
        <g transform="matrix(0.875, 0, 0, 0.875, 0, 0)">
          <g transform="translate(0, -0.0001)">
            <g transform="translate(0, 0.0011)">
              <g transform="translate(0, 0.0013)">
                <g transform="matrix(1.1438, 0, 0, 1.1438, 0, 0)">
                  <g transform="translate(0, -0.0023)">
                    <g transform="matrix(0.0275, 0, 0, 0.0275, 0, 0)">
                      <g transform="matrix(1.3333, 0, 0, 1.3333, 0, 0)">
                        <g fill="#000000" transform="translate(0, 265) scale(0.1, -0.1)" stroke="none">
                          <path d="M7560, 465L7560, 320L7595, 320L7630, 320L7630, 465L7630, 610L7595, 610L7560, 610L7560, 465z" fill="#FFFFFF" class="White" stroke="none" />
                        </g>
                      </g>
                    </g>
                  </g>
                </g>
              </g>
            </g>
          </g>
        </g>
      </g>
    </g>
  </g>
  <g transform="translate(0, 0.0002)">
    <g transform="matrix(1.1429, 0, 0, 1.1429, 0, 0)">
      <g transform="translate(0, -0.0005)">
        <g transform="matrix(0.875, 0, 0, 0.875, 0, 0)">
          <g transform="translate(0, -0.0001)">
            <g transform="translate(0, 0.0011)">
              <g transform="translate(0, 0.0013)">
                <g transform="matrix(1.1438, 0, 0, 1.1438, 0, 0)">
                  <g transform="translate(0, -0.0023)">
                    <g transform="matrix(0.0275, 0, 0, 0.0275, 0, 0)">
                      <g transform="matrix(1.3333, 0, 0, 1.3333, 0, 0)">
                        <g fill="#000000" transform="translate(0, 265) scale(0.1, -0.1)" stroke="none">
                          <path d="M1465, 535C1451, 522 1440, 502 1440, 490C1440, 479 1451, 458 1465, 445C1496, 413 1524, 413 1556, 445C1573, 462 1592, 470 1614, 470C1643, 470 1662, 456 1745, 378L1842, 286L2913, 282L3985, 277L4072, 197C4155, 121 4160, 114 4154, 84C4149, 57 4153, 46 4174, 26C4188, 11 4209, 0 4220, 0C4247, 0 4290, 43 4290, 70C4290, 100 4245, 142 4216, 138C4198, 136 4169, 157 4092, 228L3992, 320L2925, 320L1858, 320L1758, 415C1667, 501 1655, 510 1619, 510C1592, 510 1574, 517 1556, 535C1524, 567 1496, 567 1465, 535zM1535, 490C1535, 472 1529, 464 1512, 462C1488, 458 1474, 480 1484, 506C1487, 515 1499, 520 1512, 518C1529, 516 1535, 508 1535, 490zM4245, 70C4245, 52 4239, 44 4222, 42C4198, 38 4184, 60 4194, 86C4197, 95 4209, 100 4222, 98C4239, 96 4245, 88 4245, 70z" fill="#D11C1C" class="Red" stroke="none" />
                        </g>
                      </g>
                    </g>
                  </g>
                </g>
              </g>
            </g>
          </g>
        </g>
      </g>
    </g>
  </g>
  <g transform="translate(0, 0.0002)">
    <g transform="matrix(1.1429, 0, 0, 1.1429, 0, 0)">
      <g transform="translate(0, -0.0005)">
        <g transform="matrix(0.875, 0, 0, 0.875, 0, 0)">
          <g transform="translate(0, -0.0001)">
            <g transform="translate(0, 0.0011)">
              <g transform="translate(0, 0.0013)">
                <g transform="matrix(1.1438, 0, 0, 1.1438, 0, 0)">
                  <g transform="translate(0, -0.0023)">
                    <g transform="matrix(0.0275, 0, 0, 0.0275, 0, 0)">
                      <g transform="matrix(1.3333, 0, 0, 1.3333, 0, 0)">
                        <g fill="#000000" transform="translate(0, 265) scale(0.1, -0.1)" stroke="none">
                          <path d="M2505, 175C2491, 162 2480, 142 2480, 130C2480, 103 2523, 60 2550, 60C2562, 60 2582, 71 2596, 85L2621, 110L3145, 110L3669, 110L3694, 85C3708, 71 3728, 60 3740, 60C3767, 60 3810, 103 3810, 130C3810, 157 3767, 200 3740, 200C3728, 200 3708, 189 3694, 175L3669, 150L3145, 150L2621, 150L2596, 175C2564, 207 2536, 207 2505, 175zM2575, 130C2575, 112 2569, 104 2552, 102C2528, 98 2514, 120 2524, 146C2527, 155 2539, 160 2552, 158C2569, 156 2575, 148 2575, 130zM3765, 130C3765, 112 3759, 104 3742, 102C3729, 100 3717, 105 3714, 114C3704, 140 3718, 162 3742, 158C3759, 156 3765, 148 3765, 130z" fill="#D11C1C" class="Red" stroke="none" />
                        </g>
                      </g>
                    </g>
                  </g>
                </g>
              </g>
            </g>
          </g>
        </g>
      </g>
    </g>
  </g>
</svg>