<?xml version="1.0" standalone="no"?>
<!DOCTYPE svg PUBLIC "-//W3C//DTD SVG 20010904//EN"
 "http://www.w3.org/TR/2001/REC-SVG-20010904/DTD/svg10.dtd">
<svg version="1.0" xmlns="http://www.w3.org/2000/svg"
 width="763.000000pt" height="265.000000pt" viewBox="0 0 763.000000 265.000000"
 preserveAspectRatio="xMidYMid meet">

<g transform="translate(0.000000,265.000000) scale(0.100000,-0.100000)"
fill="#000000" stroke="none">
<path d="M3425 2625 c-27 -26 -31 -46 -15 -74 7 -15 -3 -29 -60 -79 l-69 -62
-518 -1 c-285 -1 -566 -4 -625 -8 l-108 -6 -184 -177 -184 -178 -141 0 c-136
0 -141 1 -165 25 -32 32 -60 32 -91 0 -32 -31 -32 -59 0 -90 31 -32 59 -32 91
0 24 24 29 25 172 25 l147 1 189 183 189 183 624 6 624 6 73 65 c43 39 82 66
95 66 28 0 71 43 71 70 0 27 -43 70 -70 70 -11 0 -32 -11 -45 -25z m70 -45 c0
-18 -6 -26 -23 -28 -24 -4 -38 18 -28 44 3 9 15 14 28 12 17 -2 23 -10 23 -28z
m-2160 -560 c0 -18 -6 -26 -23 -28 -24 -4 -38 18 -28 44 3 9 15 14 28 12 17
-2 23 -10 23 -28z"/>
<path d="M4153 2274 l-27 -27 -1042 -6 -1042 -7 -98 -91 c-55 -50 -139 -132
-189 -182 l-90 -91 -762 0 -762 0 -25 25 c-14 14 -35 25 -46 25 -27 0 -70 -43
-70 -70 0 -27 43 -70 70 -70 11 0 32 11 46 25 l25 25 765 0 766 0 190 183 189
184 676 6 c372 4 840 7 1039 7 l363 0 25 -25 c14 -14 35 -25 46 -25 27 0 70
43 70 70 0 27 -43 70 -70 70 -11 0 -33 -12 -47 -26z m72 -44 c0 -18 -6 -26
-23 -28 -24 -4 -38 18 -28 44 3 9 15 14 28 12 17 -2 23 -10 23 -28z m-4130
-380 c0 -18 -6 -26 -23 -28 -13 -2 -25 3 -28 12 -10 26 4 48 28 44 17 -2 23
-10 23 -28z"/>
<path d="M3613 2104 l-27 -27 -772 -6 -772 -7 -98 -91 c-55 -50 -139 -132
-189 -182 l-90 -91 -672 0 -672 0 -25 25 c-14 14 -35 25 -46 25 -27 0 -70 -43
-70 -70 0 -27 43 -70 70 -70 11 0 32 11 46 25 l25 25 675 0 676 0 190 183 189
184 502 6 c276 4 622 7 769 7 l267 0 25 -25 c14 -14 35 -25 46 -25 27 0 70 43
70 70 0 27 -43 70 -70 70 -11 0 -33 -12 -47 -26z m72 -44 c0 -18 -6 -26 -23
-28 -24 -4 -38 18 -28 44 3 9 15 14 28 12 17 -2 23 -10 23 -28z m-3410 -380
c0 -18 -6 -26 -23 -28 -24 -4 -38 18 -28 44 3 9 15 14 28 12 17 -2 23 -10 23
-28z"/>
<path d="M3264 1925 l-25 -25 -297 0 c-163 0 -435 -3 -604 -7 l-308 -6 -184
-179 -184 -178 -581 0 -580 0 -25 25 c-32 32 -60 32 -91 0 -32 -31 -32 -59 0
-90 31 -32 59 -32 91 0 l25 25 585 0 586 0 191 185 192 185 592 0 592 0 25
-25 c14 -14 35 -25 46 -25 27 0 70 43 70 70 0 27 -43 70 -70 70 -11 0 -32 -11
-46 -25z m71 -45 c0 -18 -6 -26 -23 -28 -13 -2 -25 3 -28 12 -10 26 4 48 28
44 17 -2 23 -10 23 -28z m-2880 -370 c0 -18 -6 -26 -23 -28 -13 -2 -25 3 -28
12 -10 26 4 48 28 44 17 -2 23 -10 23 -28z"/>
<path d="M2243 1733 c-18 -3 -23 -11 -23 -34 l0 -29 83 0 c94 0 111 -10 123
-68 l7 -32 -87 0 -86 0 0 -30 0 -30 85 0 c83 0 85 -1 85 -24 0 -37 -20 -86
-40 -96 -10 -6 -52 -10 -93 -10 -72 0 -75 -1 -79 -25 -7 -33 1 -37 83 -43 51
-3 81 0 115 13 66 25 88 76 88 205 -1 120 -22 169 -84 194 -38 15 -124 19
-177 9z"/>
<path d="M1903 1654 c-19 -19 -24 -32 -20 -54 6 -26 -4 -38 -107 -134 l-114
-106 -490 0 -491 0 -25 25 c-14 14 -34 25 -46 25 -27 0 -70 -43 -70 -70 0 -27
43 -70 70 -70 12 0 32 11 46 25 l25 25 496 0 495 0 122 114 c105 99 125 113
148 109 20 -4 34 2 52 20 33 33 33 61 1 92 -31 32 -59 32 -92 -1z m72 -44 c0
-18 -6 -26 -23 -28 -24 -4 -38 18 -28 44 3 9 15 14 28 12 17 -2 23 -10 23 -28z
m-1340 -270 c0 -18 -6 -26 -23 -28 -24 -4 -38 18 -28 44 3 9 15 14 28 12 17
-2 23 -10 23 -28z"/>
<path d="M2985 1606 c-39 -18 -55 -47 -62 -110 -6 -62 10 -129 39 -156 27 -25
95 -35 161 -24 45 8 52 12 55 34 3 25 3 25 -68 22 -77 -4 -110 11 -110 50 0
16 9 18 66 18 63 0 101 11 116 34 11 16 9 75 -3 98 -23 43 -131 62 -194 34z
m130 -81 c0 -30 0 -30 -63 -33 -62 -3 -64 -3 -57 20 13 41 26 49 74 46 44 -3
46 -4 46 -33z"/>
<path d="M3996 1595 c-44 -23 -46 -24 -46 -5 0 16 -7 20 -30 20 l-30 0 0 -205
0 -205 35 0 35 0 0 69 0 70 37 -16 c45 -18 116 -13 143 12 24 21 40 75 40 130
0 135 -75 188 -184 130z m95 -52 c9 -10 14 -40 14 -78 0 -75 -14 -95 -64 -95
-77 0 -81 4 -81 84 0 72 0 73 33 89 42 21 81 21 98 0z"/>
<path d="M4323 1614 c-59 -14 -93 -93 -79 -190 11 -83 45 -109 141 -109 109 0
140 33 140 150 0 76 -13 113 -47 134 -22 14 -118 23 -155 15z m118 -71 c9 -10
14 -40 14 -78 0 -77 -13 -95 -70 -95 -57 0 -70 18 -70 95 0 77 13 95 70 95 27
0 47 -6 56 -17z"/>
<path d="M5815 1606 c-39 -18 -55 -47 -62 -110 -6 -62 10 -129 39 -156 27 -25
95 -35 161 -24 45 8 52 12 55 34 3 25 3 25 -68 22 -77 -4 -110 11 -110 50 0
16 9 18 66 18 63 0 101 11 116 34 11 16 9 75 -3 98 -23 43 -131 62 -194 34z
m130 -81 c0 -30 0 -30 -63 -33 -62 -3 -64 -3 -57 20 13 41 26 49 74 46 44 -3
46 -4 46 -33z"/>
<path d="M2646 1587 c-18 -18 -25 -39 -30 -97 -7 -63 -12 -77 -37 -101 -47
-44 -36 -76 22 -64 42 9 64 51 78 143 12 81 20 92 64 92 l27 0 0 -120 0 -120
35 0 35 0 0 145 0 145 -85 0 c-76 0 -88 -3 -109 -23z"/>
<path d="M3260 1465 l0 -145 35 0 35 0 0 65 c0 65 0 65 28 65 35 0 54 -20 81
-82 19 -45 23 -48 56 -48 33 0 36 2 30 23 -18 60 -49 110 -78 122 l-29 12 26
7 c25 6 53 48 70 104 7 20 4 22 -28 22 -32 0 -37 -4 -51 -37 -22 -52 -44 -73
-77 -73 -27 0 -28 1 -28 55 l0 55 -35 0 -35 0 0 -145z"/>
<path d="M3570 1580 c0 -29 1 -30 50 -30 l50 0 0 -115 0 -115 35 0 35 0 0 115
0 115 50 0 c49 0 50 1 50 30 l0 30 -135 0 -135 0 0 -30z"/>
<path d="M4600 1465 l0 -145 35 0 35 0 0 65 0 65 65 0 65 0 0 -65 0 -65 35 0
35 0 0 145 0 145 -35 0 -35 0 0 -55 0 -55 -65 0 -65 0 0 55 0 55 -35 0 -35 0
0 -145z"/>
<path d="M4950 1465 l0 -145 35 0 35 0 0 65 0 65 65 0 65 0 0 -65 0 -65 35 0
35 0 0 145 0 145 -35 0 -35 0 0 -55 0 -55 -65 0 -65 0 0 55 0 55 -35 0 -35 0
0 -145z"/>
<path d="M5310 1464 l0 -146 106 4 c97 3 107 5 125 27 25 30 25 101 1 131 -15
18 -31 23 -90 28 l-72 5 0 48 0 49 -35 0 -35 0 0 -146z m168 -16 c18 -18 14
-56 -7 -68 -11 -5 -36 -10 -55 -10 -36 0 -36 0 -36 45 l0 45 43 0 c24 0 48 -5
55 -12z"/>
<path d="M5610 1465 l0 -145 35 0 35 0 0 145 0 145 -35 0 -35 0 0 -145z"/>
<path d="M745 1215 c-14 -13 -25 -33 -25 -45 0 -11 11 -32 25 -45 31 -32 59
-32 91 0 l25 25 393 0 394 0 95 -90 95 -90 497 -7 497 -6 24 -24 c30 -30 59
-29 89 2 32 31 32 59 0 90 -31 32 -59 32 -91 0 l-25 -25 -486 0 -485 0 -100
95 -100 95 -399 0 -398 0 -25 25 c-32 32 -60 32 -91 0z m70 -45 c0 -18 -6 -26
-23 -28 -24 -4 -38 18 -28 44 3 9 15 14 28 12 17 -2 23 -10 23 -28z m2110
-190 c0 -18 -6 -26 -23 -28 -24 -4 -38 18 -28 44 3 9 15 14 28 12 17 -2 23
-10 23 -28z"/>
<path d="M3210 1025 l0 -205 38 0 c40 0 40 0 185 263 15 28 29 52 30 53 1 1 1
-69 -1 -157 l-3 -159 36 0 35 0 0 205 0 205 -37 0 c-37 0 -39 -2 -93 -97 -30
-53 -70 -124 -87 -156 l-33 -60 0 157 0 156 -35 0 -35 0 0 -205z"/>
<path d="M4515 1106 c-39 -18 -55 -47 -62 -110 -6 -62 10 -129 39 -156 27 -25
95 -35 161 -24 45 8 52 12 55 34 3 25 3 25 -68 22 -77 -4 -110 11 -110 50 0
16 9 18 66 18 63 0 101 11 116 34 11 16 9 75 -3 98 -23 43 -131 62 -194 34z
m130 -81 c0 -30 0 -30 -63 -33 -62 -3 -64 -3 -57 20 13 41 26 49 74 46 44 -3
46 -4 46 -33z"/>
<path d="M5205 1106 c-39 -18 -55 -47 -62 -110 -6 -62 10 -129 39 -156 27 -25
95 -35 161 -24 45 8 52 12 55 34 3 25 3 25 -68 22 -77 -4 -110 11 -110 50 0
16 9 18 66 18 63 0 101 11 116 34 11 16 9 75 -3 98 -23 43 -131 62 -194 34z
m130 -81 c0 -30 0 -30 -63 -33 -62 -3 -64 -3 -57 20 13 41 26 49 74 46 44 -3
46 -4 46 -33z"/>
<path d="M5586 1095 c-44 -23 -46 -24 -46 -5 0 16 -7 20 -30 20 l-30 0 0 -205
0 -205 35 0 35 0 0 69 0 70 37 -16 c45 -18 116 -13 143 12 24 21 40 75 40 130
0 135 -75 188 -184 130z m95 -52 c9 -10 14 -40 14 -78 0 -75 -14 -95 -64 -95
-77 0 -81 4 -81 84 0 72 0 73 33 89 42 21 81 21 98 0z"/>
<path d="M6705 1106 c-39 -18 -55 -47 -62 -110 -6 -62 10 -129 39 -156 27 -25
95 -35 161 -24 45 8 52 12 55 34 3 25 3 25 -68 22 -77 -4 -110 11 -110 50 0
16 9 18 66 18 63 0 101 11 116 34 11 16 9 75 -3 98 -23 43 -131 62 -194 34z
m130 -81 c0 -30 0 -30 -63 -33 -62 -3 -64 -3 -57 20 13 41 26 49 74 46 44 -3
46 -4 46 -33z"/>
<path d="M3620 965 l0 -145 35 0 35 0 0 65 0 65 65 0 65 0 0 -65 0 -65 35 0
35 0 0 145 0 145 -35 0 -35 0 0 -55 0 -55 -65 0 -65 0 0 55 0 55 -35 0 -35 0
0 -145z"/>
<path d="M3970 1100 c0 -29 37 -94 62 -109 l28 -18 -25 -11 c-16 -7 -35 -32
-50 -64 -33 -70 -32 -78 9 -78 30 0 35 4 51 46 22 57 47 84 80 84 24 0 25 -2
25 -65 l0 -65 30 0 30 0 0 66 0 65 33 -3 c28 -3 35 -10 62 -65 28 -58 33 -63
63 -63 37 0 37 2 17 61 -18 49 -51 89 -74 89 -10 0 -7 5 8 13 27 13 56 56 66
100 7 25 5 27 -26 27 -31 -1 -36 -6 -59 -53 -22 -45 -29 -52 -57 -55 l-33 -3
0 55 c0 56 0 56 -30 56 -30 0 -30 0 -30 -56 l0 -55 -32 3 c-29 3 -36 10 -58
55 -22 47 -28 52 -57 53 -18 0 -33 -4 -33 -10z"/>
<path d="M4790 965 l0 -145 35 0 35 0 0 65 0 65 65 0 65 0 0 -65 0 -65 35 0
35 0 0 145 0 145 -35 0 -35 0 0 -55 0 -55 -65 0 -65 0 0 55 0 55 -35 0 -35 0
0 -145z"/>
<path d="M5840 965 l0 -145 35 0 35 0 0 65 0 65 65 0 65 0 0 -65 0 -65 35 0
35 0 0 145 0 145 -35 0 -35 0 0 -55 0 -55 -65 0 -65 0 0 55 0 55 -35 0 -35 0
0 -145z"/>
<path d="M6190 964 l0 -146 106 4 c97 3 107 5 125 27 25 30 25 101 1 131 -15
18 -31 23 -90 28 l-72 5 0 48 0 49 -35 0 -35 0 0 -146z m168 -16 c18 -18 14
-56 -7 -68 -11 -5 -36 -10 -55 -10 -36 0 -36 0 -36 45 l0 45 43 0 c24 0 48 -5
55 -12z"/>
<path d="M6490 965 l0 -145 35 0 35 0 0 145 0 145 -35 0 -35 0 0 -145z"/>
<path d="M925 1045 c-14 -13 -25 -33 -25 -45 0 -11 11 -32 25 -45 31 -32 59
-32 91 0 l25 25 303 0 304 0 95 -90 95 -90 277 -7 c273 -6 278 -7 301 -30 30
-30 59 -29 89 2 32 31 32 59 0 90 -31 32 -59 32 -91 0 l-25 -25 -266 0 -265 0
-100 95 -100 95 -309 0 -308 0 -25 25 c-32 32 -60 32 -91 0z m70 -45 c0 -18
-6 -26 -23 -28 -24 -4 -38 18 -28 44 3 9 15 14 28 12 17 -2 23 -10 23 -28z
m1490 -190 c0 -18 -6 -26 -23 -28 -13 -2 -25 3 -28 12 -10 26 4 48 28 44 17
-2 23 -10 23 -28z"/>
<path d="M1105 875 c-14 -13 -25 -33 -25 -45 0 -11 11 -32 25 -45 31 -32 59
-32 91 0 l25 25 211 0 211 0 102 -95 103 -95 1254 6 1254 7 26 -26 c34 -34 62
-34 93 -2 32 31 32 59 0 90 -32 33 -61 31 -95 -5 l-28 -30 -1247 0 -1247 0
-101 95 -101 95 -218 0 -217 0 -25 25 c-32 32 -60 32 -91 0z m70 -45 c0 -18
-6 -26 -23 -28 -24 -4 -38 18 -28 44 3 9 15 14 28 12 17 -2 23 -10 23 -28z
m3280 -180 c0 -18 -6 -26 -23 -28 -24 -4 -38 18 -28 44 3 9 15 14 28 12 17 -2
23 -10 23 -28z"/>
<path d="M5253 734 c-44 -10 -80 -56 -93 -119 -14 -69 -8 -176 13 -227 26 -62
98 -88 211 -74 53 7 56 9 56 36 l0 28 -80 -1 c-70 -2 -82 1 -102 21 -21 21
-23 31 -23 127 0 95 2 106 23 127 20 20 32 23 96 22 71 -1 74 0 79 23 2 13 0
26 -6 30 -13 8 -145 13 -174 7z"/>
<path d="M1285 705 c-14 -13 -25 -33 -25 -45 0 -11 11 -32 25 -45 31 -32 59
-32 91 0 24 24 30 25 146 25 l121 0 101 -94 102 -94 1476 9 1476 10 26 -26
c32 -32 60 -32 91 0 32 31 32 59 0 90 -32 33 -61 31 -94 -3 l-26 -29 -1468 -7
-1467 -8 -102 96 -102 96 -128 0 c-122 0 -128 1 -152 25 -32 32 -60 32 -91 0z
m70 -45 c0 -18 -6 -26 -23 -28 -13 -2 -25 3 -28 12 -10 26 4 48 28 44 17 -2
23 -10 23 -28z m3540 -170 c0 -18 -6 -26 -23 -28 -13 -2 -25 3 -28 12 -10 26
4 48 28 44 17 -2 23 -10 23 -28z"/>
<path d="M5934 609 c-51 -15 -69 -52 -69 -144 0 -127 42 -164 169 -151 65 7
82 16 73 40 -5 12 -21 16 -70 16 -82 0 -101 18 -101 95 0 77 19 95 101 95 60
0 63 1 63 24 0 19 -6 24 -37 30 -50 8 -91 6 -129 -5z"/>
<path d="M6525 606 c-39 -18 -55 -47 -62 -110 -6 -62 10 -129 39 -156 27 -25
95 -35 161 -24 45 8 52 12 55 34 3 25 3 25 -68 22 -77 -4 -110 11 -110 50 0
16 9 18 66 18 63 0 101 11 116 34 11 16 9 75 -3 98 -23 43 -131 62 -194 34z
m130 -81 c0 -30 0 -30 -63 -33 -62 -3 -64 -3 -57 20 13 41 26 49 74 46 44 -3
46 -4 46 -33z"/>
<path d="M5510 465 l0 -145 30 0 c26 0 39 12 105 101 l75 100 0 -100 0 -101
30 0 30 0 0 145 0 145 -27 0 c-24 -1 -40 -17 -105 -106 l-78 -106 0 106 0 106
-30 0 -30 0 0 -145z"/>
<path d="M6150 580 c0 -29 1 -30 50 -30 l50 0 0 -115 0 -115 35 0 35 0 0 115
0 115 50 0 c49 0 50 1 50 30 l0 30 -135 0 -135 0 0 -30z"/>
<path d="M6816 598 c-3 -7 -7 -73 -11 -145 l-6 -133 30 0 c38 0 41 11 41 131
0 54 4 99 8 99 5 0 21 -42 38 -92 l29 -93 44 0 45 0 30 93 c17 50 34 92 38 92
4 0 8 -42 8 -92 0 -123 5 -138 42 -138 l29 0 -6 133 c-4 72 -8 138 -11 145 -3
9 -20 12 -56 10 l-53 -3 -27 -80 c-14 -44 -27 -90 -27 -102 -2 -43 -16 -22
-38 55 -38 135 -35 132 -93 132 -32 0 -52 -5 -54 -12z"/>
<path d="M7260 464 l0 -146 106 4 c97 3 107 5 125 27 25 30 25 101 1 131 -15
18 -31 23 -90 28 l-72 5 0 48 0 49 -35 0 -35 0 0 -146z m168 -16 c18 -18 14
-56 -7 -68 -11 -5 -36 -10 -55 -10 -36 0 -36 0 -36 45 l0 45 43 0 c24 0 48 -5
55 -12z"/>
<path d="M7560 465 l0 -145 35 0 35 0 0 145 0 145 -35 0 -35 0 0 -145z"/>
<path d="M1465 535 c-14 -13 -25 -33 -25 -45 0 -11 11 -32 25 -45 31 -32 59
-32 91 0 17 17 36 25 58 25 29 0 48 -14 131 -92 l97 -92 1071 -4 1072 -5 87
-80 c83 -76 88 -83 82 -113 -5 -27 -1 -38 20 -58 14 -15 35 -26 46 -26 27 0
70 43 70 70 0 30 -45 72 -74 68 -18 -2 -47 19 -124 90 l-100 92 -1067 0 -1067
0 -100 95 c-91 86 -103 95 -139 95 -27 0 -45 7 -63 25 -32 32 -60 32 -91 0z
m70 -45 c0 -18 -6 -26 -23 -28 -24 -4 -38 18 -28 44 3 9 15 14 28 12 17 -2 23
-10 23 -28z m2710 -420 c0 -18 -6 -26 -23 -28 -24 -4 -38 18 -28 44 3 9 15 14
28 12 17 -2 23 -10 23 -28z"/>
<path d="M2505 175 c-14 -13 -25 -33 -25 -45 0 -27 43 -70 70 -70 12 0 32 11
46 25 l25 25 524 0 524 0 25 -25 c14 -14 34 -25 46 -25 27 0 70 43 70 70 0 27
-43 70 -70 70 -12 0 -32 -11 -46 -25 l-25 -25 -524 0 -524 0 -25 25 c-32 32
-60 32 -91 0z m70 -45 c0 -18 -6 -26 -23 -28 -24 -4 -38 18 -28 44 3 9 15 14
28 12 17 -2 23 -10 23 -28z m1190 0 c0 -18 -6 -26 -23 -28 -13 -2 -25 3 -28
12 -10 26 4 48 28 44 17 -2 23 -10 23 -28z"/>
</g>
</svg>
