<?xml version="1.0" standalone="no"?>
<!DOCTYPE svg PUBLIC "-//W3C//DTD SVG 20010904//EN"
 "http://www.w3.org/TR/2001/REC-SVG-20010904/DTD/svg10.dtd">
<svg version="1.0" xmlns="http://www.w3.org/2000/svg"
 width="900.000000pt" height="900.000000pt" viewBox="0 0 900.000000 900.000000"
 preserveAspectRatio="xMidYMid meet">
<metadata>
Created by potrace 1.14, written by Peter Selinger 2001-2017
</metadata>
<g transform="translate(0.000000,900.000000) scale(0.100000,-0.100000)"
fill="#000000" stroke="none">
<path d="M6835 6780 c-49 -20 -81 -82 -65 -126 8 -20 1 -30 -62 -86 -39 -35
-76 -68 -82 -73 -6 -6 -46 -41 -89 -79 l-78 -70 -1138 0 -1138 -1 -68 -60
c-37 -33 -80 -70 -96 -83 -15 -12 -43 -37 -61 -55 -19 -17 -63 -57 -97 -87
-35 -30 -72 -62 -81 -70 -9 -8 -46 -40 -80 -70 -35 -30 -68 -59 -74 -65 -6 -5
-30 -26 -52 -46 l-41 -36 -371 -1 c-354 0 -372 1 -377 19 -11 33 -55 59 -100
59 -33 0 -50 -6 -74 -29 -17 -16 -32 -40 -33 -53 0 -12 -2 -30 -3 -38 -5 -45
57 -100 112 -100 36 0 89 33 98 59 6 21 11 21 389 21 l383 0 184 161 c101 89
215 189 253 223 38 33 85 75 104 91 20 17 46 40 59 53 13 13 34 29 46 35 17 9
306 12 1152 12 812 -1 1133 2 1140 10 6 6 44 40 85 76 41 35 77 66 80 69 3 3
38 34 79 70 73 64 75 65 126 62 44 -3 56 0 83 23 95 80 2 233 -113 185z m76
-71 c29 -29 11 -78 -29 -79 -47 0 -67 47 -35 82 21 23 38 23 64 -3z m-4186
-943 c29 -44 -18 -91 -65 -66 -43 23 -19 90 32 90 10 0 25 -11 33 -24z"/>
<path d="M6074 6740 c-11 -5 -33 -23 -48 -41 l-28 -33 -1153 0 -1154 -1 -43
-40 c-23 -22 -45 -42 -48 -45 -3 -3 -41 -37 -85 -75 -44 -39 -85 -75 -91 -80
-6 -6 -39 -35 -74 -65 -35 -30 -81 -71 -104 -92 -31 -27 -45 -34 -58 -27 -66
35 -155 -19 -160 -97 -8 -94 112 -149 184 -85 27 24 32 36 34 77 2 41 7 53 35
78 19 16 68 59 109 96 41 37 93 82 115 101 22 19 45 39 51 44 51 48 149 132
163 140 10 5 446 9 1146 10 l1130 1 35 -38 c39 -42 72 -52 122 -36 75 23 98
123 43 183 -22 25 -87 38 -121 25z m85 -86 c9 -22 8 -28 -14 -50 -24 -24 -28
-25 -48 -11 -31 20 -30 68 2 83 30 15 45 10 60 -22z m-2991 -479 c34 -24 13
-85 -29 -85 -43 0 -65 61 -31 86 22 17 33 17 60 -1z"/>
<path d="M8535 6098 c-11 -6 -33 -25 -50 -42 l-30 -31 -2134 0 -2134 1 -86
-74 c-90 -79 -206 -180 -225 -197 -6 -6 -45 -39 -86 -75 -41 -36 -79 -70 -85
-76 -5 -6 -41 -37 -80 -70 -38 -32 -75 -64 -82 -71 -14 -12 -1133 -16 -1133
-4 0 4 -14 22 -31 39 -25 25 -40 32 -70 32 -75 0 -119 -43 -119 -115 0 -29 8
-45 35 -72 33 -33 39 -35 83 -30 38 4 53 12 78 41 l31 36 569 0 c434 1 573 4
585 13 14 10 138 119 173 152 6 6 63 55 126 110 63 55 122 107 131 115 25 24
149 132 181 160 l30 24 2125 1 2126 0 24 -32 c25 -32 36 -38 84 -47 57 -9 119
47 119 109 0 35 -25 82 -52 96 -29 16 -80 19 -103 7z m73 -66 c35 -31 18 -82
-27 -82 -52 0 -71 55 -29 84 28 20 30 20 56 -2z m-6274 -578 c22 -21 20 -47
-5 -70 -19 -17 -23 -17 -47 -3 -33 18 -39 44 -16 70 21 23 47 24 68 3z"/>
<path d="M6775 5774 c-17 -9 -37 -27 -46 -42 l-14 -26 -1266 -1 -1266 0 -159
-139 c-88 -77 -163 -144 -169 -150 -5 -6 -37 -34 -69 -61 -33 -28 -72 -61 -86
-75 -36 -34 -139 -122 -159 -136 -19 -13 -1571 -17 -1571 -4 0 5 -14 22 -31
39 -50 50 -132 40 -169 -21 -60 -97 46 -207 148 -154 15 8 34 26 42 40 l13 26
792 0 c740 0 793 1 812 18 11 9 48 42 83 72 75 66 65 57 170 150 47 41 87 77
90 80 3 3 34 30 69 60 36 30 74 64 86 75 21 20 69 62 113 100 23 19 46 19
1274 20 l1250 0 21 -29 c50 -70 156 -65 192 9 19 41 19 59 -1 100 -16 34 -66
66 -101 64 -10 0 -32 -7 -48 -15z m69 -55 c41 -19 42 -69 2 -87 -49 -22 -89
44 -50 82 18 19 17 19 48 5z m-4953 -579 c34 -19 15 -90 -24 -90 -23 0 -54 29
-52 49 3 43 37 61 76 41z"/>
<path d="M6194 5460 c-11 -4 -32 -22 -47 -39 l-26 -31 -968 0 -968 0 -35 -33
c-20 -17 -64 -57 -99 -87 -35 -30 -73 -64 -85 -75 -13 -11 -51 -45 -86 -75
-35 -30 -68 -59 -74 -65 -6 -5 -32 -28 -57 -50 -24 -22 -78 -69 -118 -105 -40
-36 -81 -69 -90 -75 -10 -6 -364 -10 -994 -10 -918 0 -978 1 -983 17 -7 22
-52 55 -79 58 -43 5 -65 -1 -94 -26 -59 -49 -48 -144 19 -179 53 -28 127 -7
149 42 l11 23 991 0 992 0 41 34 c23 19 57 49 77 68 20 18 62 56 94 83 32 28
63 55 69 60 6 6 47 41 91 80 44 38 85 75 92 81 6 6 52 46 103 90 l91 79 957 0
957 1 20 -31 c53 -79 183 -52 201 42 16 86 -70 156 -152 123z m68 -59 c4 -1
12 -10 18 -22 24 -43 -43 -92 -78 -57 -27 27 0 90 36 83 9 -2 20 -4 24 -4z
m-4759 -592 c15 -24 1 -66 -25 -72 -47 -13 -79 30 -53 70 18 28 61 29 78 2z"/>
<path d="M6519 5110 l-38 -40 -1148 0 -1148 0 -105 -91 c-107 -93 -235 -206
-254 -224 -89 -84 -139 -118 -154 -109 -22 13 -77 10 -108 -6 -52 -28 -66
-111 -27 -164 61 -85 210 -26 196 78 -4 30 2 38 58 87 34 30 69 61 79 69 32
29 135 119 156 137 12 10 51 45 89 78 37 33 75 64 84 70 10 6 429 10 1149 12
l1134 2 37 -39 c31 -32 45 -40 74 -40 70 0 117 44 117 110 0 65 -43 109 -109
110 -39 0 -49 -5 -82 -40z m115 -36 c21 -20 20 -43 -1 -66 -20 -22 -41 -23
-65 -1 -22 20 -23 41 -1 65 20 22 46 23 67 2z m-2966 -527 c6 -50 -65 -70 -85
-24 -13 30 -6 53 20 65 29 13 61 -6 65 -41z"/>
<path d="M7209 4559 c-19 -9 -41 -28 -48 -42 l-13 -24 -1570 0 -1570 0 -36 38
c-29 33 -42 39 -74 39 -45 0 -77 -14 -98 -44 -57 -79 6 -186 101 -173 42 5 89
40 89 64 0 11 275 13 1580 13 l1580 0 12 -25 c13 -29 64 -55 107 -55 67 0 120
90 92 158 -23 54 -97 80 -152 51z m-3286 -67 c18 -20 17 -43 -2 -66 -17 -21
-40 -20 -63 1 -22 20 -23 46 -2 67 20 21 47 20 67 -2z m3373 -3 c17 -18 17
-23 4 -46 -18 -31 -53 -39 -74 -17 -20 20 -20 48 0 68 21 22 47 20 70 -5z"/>
<path d="M1031 4542 c-73 -69 -26 -192 74 -192 37 0 78 24 95 54 l13 26 1017
0 1017 0 13 -26 c49 -90 189 -61 203 42 11 77 -42 130 -119 121 -45 -5 -94
-37 -94 -62 0 -10 -234 -12 -1020 -12 -980 0 -1020 0 -1025 18 -10 31 -60 59
-104 59 -31 0 -48 -7 -70 -28z m112 -53 c30 -42 -13 -93 -58 -69 -13 7 -25 21
-28 31 -7 26 20 59 48 59 13 0 30 -9 38 -21z m2249 -2 c29 -44 -16 -93 -61
-66 -29 19 -33 57 -7 74 29 21 51 19 68 -8z"/>
<path d="M673 4214 c-31 -33 -33 -40 -28 -82 6 -51 16 -67 56 -88 54 -27 123
-8 150 43 l12 23 1288 0 1287 0 73 -67 c40 -38 100 -94 133 -125 34 -32 68
-58 76 -59 8 0 395 -1 860 -2 l845 0 13 -28 c18 -36 74 -63 116 -55 43 8 84
49 92 91 14 74 -65 145 -138 124 -20 -5 -48 -23 -61 -39 l-25 -29 -843 0 -844
0 -51 47 c-28 26 -89 82 -136 126 l-86 79 -1301 0 c-1254 0 -1301 0 -1306 18
-10 31 -59 59 -105 59 -36 0 -48 -6 -77 -36z m108 -34 c19 -11 25 -45 11 -67
-4 -6 -19 -14 -34 -18 -21 -6 -30 -2 -43 19 -16 24 -16 28 -1 51 18 27 36 31
67 15z m4789 -265 c22 -20 14 -62 -14 -72 -41 -14 -66 2 -66 43 0 41 47 59 80
29z"/>
<path d="M6835 4031 c-46 -19 -77 -82 -65 -131 6 -25 2 -30 -154 -165 -31 -27
-70 -61 -85 -75 -15 -14 -37 -33 -49 -42 -20 -16 -108 -18 -1384 -17 l-1363 0
-55 50 c-30 28 -90 84 -134 125 -43 41 -83 74 -90 75 -6 0 -669 1 -1474 1
l-1462 0 -17 29 c-40 68 -146 67 -187 -2 -47 -79 8 -168 103 -169 27 0 42 8
72 40 l38 40 1454 0 1454 0 64 -59 c35 -32 96 -89 134 -125 39 -36 79 -66 90
-67 11 0 637 -1 1392 -1 l1372 -1 83 74 c46 41 85 76 88 79 3 3 37 32 75 65
39 33 73 63 76 68 3 4 17 4 30 -1 40 -15 82 -4 115 32 27 28 31 40 29 79 -2
53 -17 75 -62 94 -36 15 -59 16 -88 4z m87 -87 c20 -44 -46 -86 -80 -52 -19
19 -14 55 9 71 26 19 58 10 71 -19z m-6476 -95 c17 -19 17 -23 3 -47 -18 -33
-44 -39 -70 -16 -23 21 -24 47 -3 68 21 22 47 20 70 -5z"/>
<path d="M84 3608 c-51 -13 -79 -52 -79 -109 0 -59 31 -96 87 -105 44 -8 101
18 116 51 l12 25 1609 0 1610 0 29 -27 c16 -16 77 -73 135 -127 l107 -99 2154
0 2154 0 11 -23 c23 -52 106 -73 156 -40 71 46 68 153 -5 191 -55 28 -123 10
-151 -41 l-12 -23 -2142 0 -2141 0 -51 47 c-27 26 -88 82 -134 126 l-84 78
-1622 1 c-1514 0 -1623 1 -1628 17 -6 19 -51 54 -80 62 -11 2 -34 1 -51 -4z
m60 -74 c30 -29 17 -68 -25 -79 -43 -11 -71 43 -41 78 19 21 46 22 66 1z
m8008 -246 c25 -21 28 -46 9 -70 -16 -19 -23 -21 -46 -13 -38 14 -49 47 -24
74 23 24 39 26 61 9z"/>
<path d="M75 3285 c-50 -21 -70 -51 -70 -107 0 -42 4 -53 28 -74 57 -49 128
-44 166 11 l24 35 1608 0 1609 0 33 -32 c19 -18 76 -72 128 -119 52 -48 97
-90 102 -95 4 -4 1148 -7 2543 -7 l2535 0 11 -21 c26 -48 72 -68 124 -55 92
25 112 150 32 199 -57 35 -118 23 -153 -30 l-20 -30 -2520 1 -2520 0 -55 51
c-30 28 -82 76 -116 107 -33 31 -70 65 -82 75 -21 18 -66 19 -1642 19 l-1621
0 -14 27 c-12 23 -33 39 -55 42 -3 0 -14 4 -25 8 -12 5 -33 3 -50 -5z m71 -69
c20 -21 17 -50 -7 -72 -18 -17 -23 -17 -46 -4 -31 18 -38 48 -16 72 19 22 49
23 69 4z m8775 -257 c30 -30 11 -78 -33 -79 -21 0 -48 26 -48 47 0 21 29 53
47 53 7 0 22 -9 34 -21z"/>
<path d="M242 2940 c-51 -51 -45 -123 14 -169 23 -18 38 -22 72 -18 44 5 92
38 92 64 0 11 262 13 1508 13 l1507 0 30 -26 c26 -22 71 -64 207 -192 l37 -35
1844 0 1844 0 111 -104 c107 -101 110 -104 102 -137 -9 -42 9 -88 44 -112 38
-24 119 -15 145 17 70 83 5 200 -103 185 -45 -6 -28 -19 -223 165 l-52 50
-1843 0 -1843 -1 -55 51 c-30 28 -90 84 -134 125 -43 41 -83 74 -90 75 -6 0
-688 1 -1516 1 l-1505 0 -33 39 c-30 35 -38 39 -82 39 -40 0 -53 -5 -78 -30z
m113 -50 c15 -17 16 -24 7 -45 -6 -14 -15 -25 -19 -26 -5 0 -16 -2 -26 -4 -39
-7 -62 49 -31 79 21 22 47 20 69 -4z m7394 -541 c34 -32 14 -78 -34 -79 -46 0
-62 57 -23 84 28 20 30 20 57 -5z"/>
<path d="M3133 2645 c-17 -7 -41 -27 -53 -43 l-22 -30 -1142 0 -1141 1 -36 38
c-31 34 -42 39 -81 39 -54 0 -92 -25 -107 -73 -40 -119 108 -199 191 -104 10
11 18 24 18 29 0 4 519 8 1154 8 l1155 0 6 -21 c9 -26 62 -59 97 -59 82 0 136
85 100 159 -24 51 -89 77 -139 56z m-2440 -76 c19 -27 10 -58 -20 -70 -32 -12
-59 3 -65 36 -9 47 58 74 85 34z m2511 5 c33 -33 17 -70 -35 -80 -36 -7 -58
49 -32 78 20 22 47 23 67 2z"/>
</g>
</svg>
